Alfphabet-I.ufo
<glyph name="exclam" format="1">
  <advance width="263"/>
  <unicode hex="0021"/>
  <outline>
    <contour>
      <point x="71" y="712" type="line"/>
      <point x="191" y="712" type="line"/>
      <point x="180" y="208" type="line"/>
      <point x="81" y="208" type="line"/>
    </contour>
    <contour>
      <point x="73" y="0" type="line"/>
      <point x="73" y="119" type="line"/>
      <point x="192" y="119" type="line"/>
      <point x="192" y="0" type="line"/>
    </contour>
  </outline>
</glyph>
<glyph name="quotedbl" format="1">
  <advance width="439"/>
  <unicode hex="0022"/>
  <outline>
    <contour>
      <point x="71" y="534" type="line"/>
      <point x="71" y="712" type="line"/>
      <point x="190" y="712" type="line"/>
      <point x="190" y="594" type="line"/>
    </contour>
    <contour>
      <point x="249" y="534" type="line"/>
      <point x="249" y="712" type="line"/>
      <point x="368" y="712" type="line"/>
      <point x="368" y="594" type="line"/>
    </contour>
  </outline>
</glyph>
<glyph name="numbersign" format="1">
  <advance width="678"/>
  <unicode hex="0023"/>
  <outline>
    <contour>
      <point x="482" y="202" type="line"/>
      <point x="464" y="0" type="line"/>
      <point x="364" y="0" type="line"/>
      <point x="382" y="202" type="line"/>
      <point x="268" y="202" type="line"/>
      <point x="250" y="0" type="line"/>
      <point x="150" y="0" type="line"/>
      <point x="168" y="202" type="line"/>
      <point x="71" y="202" type="line"/>
      <point x="71" y="288" type="line"/>
      <point x="175" y="288" type="line"/>
      <point x="190" y="445" type="line"/>
      <point x="71" y="445" type="line"/>
      <point x="71" y="531" type="line"/>
      <point x="196" y="531" type="line"/>
      <point x="214" y="730" type="line"/>
      <point x="314" y="730" type="line"/>
      <point x="296" y="531" type="line"/>
      <point x="410" y="531" type="line"/>
      <point x="428" y="730" type="line"/>
      <point x="528" y="730" type="line"/>
      <point x="510" y="531" type="line"/>
      <point x="607" y="531" type="line"/>
      <point x="607" y="445" type="line"/>
      <point x="503" y="445" type="line"/>
      <point x="489" y="288" type="line"/>
      <point x="607" y="288" type="line"/>
      <point x="607" y="202" type="line"/>
    </contour>
    <contour>
      <point x="289" y="445" type="line"/>
      <point x="275" y="288" type="line"/>
      <point x="389" y="288" type="line"/>
      <point x="404" y="445" type="line"/>
    </contour>
  </outline>
</glyph>
<glyph name="percent" format="1">
  <advance width="559"/>
  <unicode hex="0025"/>
  <outline>
    <contour>
      <point x="357" y="100" type="line" smooth="yes"/>
      <point x="357" y="51"/>
      <point x="394" y="51" type="qcurve" smooth="yes"/>
      <point x="431" y="51"/>
      <point x="431" y="100" type="qcurve" smooth="yes"/>
      <point x="431" y="154" type="line" smooth="yes"/>
      <point x="431" y="203"/>
      <point x="394" y="203" type="qcurve" smooth="yes"/>
      <point x="357" y="203"/>
      <point x="357" y="154" type="qcurve" smooth="yes"/>
    </contour>
    <contour>
      <point x="300" y="161" type="line" smooth="yes"/>
      <point x="300" y="187"/>
      <point x="316" y="225"/>
      <point x="342" y="249"/>
      <point x="376" y="260"/>
      <point x="394" y="260" type="qcurve" smooth="yes"/>
      <point x="412" y="260"/>
      <point x="446" y="249"/>
      <point x="472" y="225"/>
      <point x="488" y="187"/>
      <point x="488" y="161" type="qcurve" smooth="yes"/>
      <point x="488" y="93" type="line" smooth="yes"/>
      <point x="488" y="67"/>
      <point x="472" y="29"/>
      <point x="446" y="5"/>
      <point x="412" y="-6"/>
      <point x="394" y="-6" type="qcurve" smooth="yes"/>
      <point x="376" y="-6"/>
      <point x="342" y="5"/>
      <point x="316" y="29"/>
      <point x="300" y="67"/>
      <point x="300" y="93" type="qcurve" smooth="yes"/>
    </contour>
    <contour>
      <point x="71" y="619" type="line" smooth="yes"/>
      <point x="71" y="645"/>
      <point x="87" y="683"/>
      <point x="113" y="707"/>
      <point x="147" y="718"/>
      <point x="165" y="718" type="qcurve" smooth="yes"/>
      <point x="183" y="718"/>
      <point x="217" y="707"/>
      <point x="243" y="683"/>
      <point x="259" y="645"/>
      <point x="259" y="619" type="qcurve" smooth="yes"/>
      <point x="259" y="551" type="line" smooth="yes"/>
      <point x="259" y="525"/>
      <point x="243" y="487"/>
      <point x="217" y="463"/>
      <point x="183" y="452"/>
      <point x="165" y="452" type="qcurve" smooth="yes"/>
      <point x="147" y="452"/>
      <point x="113" y="463"/>
      <point x="87" y="487"/>
      <point x="71" y="525"/>
      <point x="71" y="551" type="qcurve" smooth="yes"/>
    </contour>
    <contour>
      <point x="128" y="558" type="line" smooth="yes"/>
      <point x="128" y="509"/>
      <point x="165" y="509" type="qcurve" smooth="yes"/>
      <point x="202" y="509"/>
      <point x="202" y="558" type="qcurve" smooth="yes"/>
      <point x="202" y="612" type="line" smooth="yes"/>
      <point x="202" y="661"/>
      <point x="165" y="661" type="qcurve" smooth="yes"/>
      <point x="128" y="661"/>
      <point x="128" y="612" type="qcurve" smooth="yes"/>
    </contour>
    <contour>
      <point x="415" y="712" type="line"/>
      <point x="481" y="712" type="line"/>
      <point x="144" y="0" type="line"/>
      <point x="78" y="0" type="line"/>
    </contour>
  </outline>
</glyph>
<glyph name="parenleft" format="1">
  <advance width="278"/>
  <unicode hex="0028"/>
  <outline>
    <contour>
      <point x="218" y="-102" type="line"/>
      <point x="179" y="-58"/>
      <point x="119" y="41"/>
      <point x="80" y="146"/>
      <point x="60" y="254"/>
      <point x="60" y="305" type="qcurve" smooth="yes"/>
      <point x="60" y="356"/>
      <point x="80" y="463"/>
      <point x="119" y="568"/>
      <point x="179" y="668"/>
      <point x="218" y="712" type="qcurve"/>
      <point x="258" y="712" type="line"/>
      <point x="213" y="617"/>
      <point x="162" y="414"/>
      <point x="162" y="305" type="qcurve" smooth="yes"/>
      <point x="162" y="196"/>
      <point x="213" y="-7"/>
      <point x="258" y="-102" type="qcurve"/>
    </contour>
  </outline>
</glyph>
<glyph name="parenright" format="1">
  <advance width="278"/>
  <unicode hex="0029"/>
  <outline>
    <contour>
      <point x="60" y="712" type="line"/>
      <point x="99" y="668"/>
      <point x="159" y="568"/>
      <point x="198" y="463"/>
      <point x="218" y="356"/>
      <point x="218" y="305" type="qcurve" smooth="yes"/>
      <point x="218" y="254"/>
      <point x="198" y="146"/>
      <point x="159" y="41"/>
      <point x="99" y="-58"/>
      <point x="60" y="-102" type="qcurve"/>
      <point x="20" y="-102" type="line"/>
      <point x="65" y="-7"/>
      <point x="116" y="196"/>
      <point x="116" y="305" type="qcurve" smooth="yes"/>
      <point x="116" y="414"/>
      <point x="65" y="617"/>
      <point x="20" y="712" type="qcurve"/>
    </contour>
  </outline>
</glyph>
<glyph name="asterisk" format="1">
  <advance width="350"/>
  <unicode hex="002A"/>
  <outline>
    <contour>
      <point x="145" y="513" type="line"/>
      <point x="65" y="467" type="line"/>
      <point x="35" y="513" type="line"/>
      <point x="118" y="564" type="line"/>
      <point x="35" y="615" type="line"/>
      <point x="65" y="661" type="line"/>
      <point x="145" y="615" type="line"/>
      <point x="145" y="712" type="line"/>
      <point x="205" y="712" type="line"/>
      <point x="205" y="615" type="line"/>
      <point x="285" y="661" type="line"/>
      <point x="315" y="615" type="line"/>
      <point x="232" y="564" type="line"/>
      <point x="315" y="513" type="line"/>
      <point x="285" y="467" type="line"/>
      <point x="205" y="513" type="line"/>
      <point x="205" y="416" type="line"/>
      <point x="145" y="416" type="line"/>
    </contour>
  </outline>
</glyph>
<glyph name="plus" format="1">
  <advance width="624"/>
  <unicode hex="002B"/>
  <outline>
    <contour>
      <point x="363" y="263" type="line"/>
      <point x="363" y="72" type="line"/>
      <point x="263" y="72" type="line"/>
      <point x="263" y="263" type="line"/>
      <point x="71" y="263" type="line"/>
      <point x="71" y="363" type="line"/>
      <point x="262" y="363" type="line"/>
      <point x="262" y="554" type="line"/>
      <point x="362" y="554" type="line"/>
      <point x="362" y="363" type="line"/>
      <point x="553" y="363" type="line"/>
      <point x="553" y="263" type="line"/>
    </contour>
  </outline>
</glyph>
<glyph name="comma" format="1">
  <advance width="261"/>
  <unicode hex="002C"/>
  <outline>
    <contour>
      <point x="71" y="-59" type="line"/>
      <point x="71" y="119" type="line"/>
      <point x="190" y="119" type="line"/>
      <point x="190" y="0" type="line"/>
    </contour>
  </outline>
</glyph>
<glyph name="hyphen" format="1">
  <advance width="617"/>
  <unicode hex="002D"/>
  <outline>
    <contour>
      <point x="71" y="256" type="line"/>
      <point x="71" y="375" type="line"/>
      <point x="546" y="375" type="line"/>
      <point x="546" y="256" type="line"/>
    </contour>
  </outline>
</glyph>
<glyph name="period" format="1">
  <advance width="261"/>
  <unicode hex="002E"/>
  <outline>
    <contour>
      <point x="71" y="0" type="line"/>
      <point x="71" y="119" type="line"/>
      <point x="190" y="119" type="line"/>
      <point x="190" y="0" type="line"/>
    </contour>
  </outline>
</glyph>
<glyph name="slash" format="1">
  <advance width="333"/>
  <unicode hex="002F"/>
  <outline>
    <contour>
      <point x="247" y="718" type="line"/>
      <point x="325" y="718" type="line"/>
      <point x="86" y="-6" type="line"/>
      <point x="8" y="-6" type="line"/>
    </contour>
  </outline>
</glyph>
<glyph name="zero" format="1">
  <advance width="617"/>
  <unicode hex="0030"/>
  <outline>
    <contour>
      <point x="427" y="489" type="line" smooth="yes"/>
      <point x="427" y="514"/>
      <point x="408" y="557"/>
      <point x="376" y="589"/>
      <point x="333" y="608"/>
      <point x="309" y="608" type="qcurve" smooth="yes"/>
      <point x="284" y="608"/>
      <point x="241" y="589"/>
      <point x="209" y="557"/>
      <point x="190" y="514"/>
      <point x="190" y="489" type="qcurve" smooth="yes"/>
      <point x="190" y="223" type="line" smooth="yes"/>
      <point x="190" y="199"/>
      <point x="209" y="156"/>
      <point x="241" y="124"/>
      <point x="284" y="105"/>
      <point x="309" y="105" type="qcurve" smooth="yes"/>
      <point x="333" y="105"/>
      <point x="376" y="124"/>
      <point x="408" y="156"/>
      <point x="427" y="199"/>
      <point x="427" y="223" type="qcurve" smooth="yes"/>
    </contour>
    <contour>
      <point x="309" y="-14" type="qcurve" smooth="yes"/>
      <point x="260" y="-14"/>
      <point x="173" y="23"/>
      <point x="109" y="88"/>
      <point x="71" y="174"/>
      <point x="71" y="223" type="qcurve" smooth="yes"/>
      <point x="71" y="489" type="line" smooth="yes"/>
      <point x="71" y="538"/>
      <point x="109" y="625"/>
      <point x="173" y="689"/>
      <point x="260" y="727"/>
      <point x="309" y="727" type="qcurve" smooth="yes"/>
      <point x="358" y="727"/>
      <point x="444" y="689"/>
      <point x="509" y="625"/>
      <point x="546" y="538"/>
      <point x="546" y="489" type="qcurve" smooth="yes"/>
      <point x="546" y="223" type="line" smooth="yes"/>
      <point x="546" y="174"/>
      <point x="509" y="88"/>
      <point x="444" y="23"/>
      <point x="358" y="-14"/>
    </contour>
  </outline>
</glyph>
<glyph name="one" format="1">
  <advance width="342"/>
  <unicode hex="0031"/>
  <outline>
    <contour>
      <point x="152" y="712" type="line"/>
      <point x="271" y="712" type="line"/>
      <point x="271" y="0" type="line"/>
      <point x="152" y="0" type="line"/>
      <point x="152" y="557" type="line"/>
      <point x="71" y="490" type="line"/>
      <point x="71" y="645" type="line"/>
    </contour>
  </outline>
</glyph>
<glyph name="two" format="1">
  <advance width="617"/>
  <unicode hex="0032"/>
  <outline>
    <contour>
      <point x="546" y="119" type="line"/>
      <point x="546" y="0" type="line"/>
      <point x="71" y="0" type="line"/>
      <point x="71" y="119" type="line"/>
      <point x="388" y="401" type="line" smooth="yes"/>
      <point x="406" y="418"/>
      <point x="427" y="463"/>
      <point x="427" y="489" type="qcurve" smooth="yes"/>
      <point x="427" y="514"/>
      <point x="408" y="557"/>
      <point x="376" y="589"/>
      <point x="333" y="608"/>
      <point x="309" y="608" type="qcurve" smooth="yes"/>
      <point x="284" y="608"/>
      <point x="241" y="589"/>
      <point x="209" y="557"/>
      <point x="190" y="514"/>
      <point x="190" y="489" type="qcurve" smooth="yes"/>
      <point x="190" y="457"/>
      <point x="206" y="430" type="qcurve"/>
      <point x="103" y="370" type="line"/>
      <point x="88" y="396"/>
      <point x="71" y="457"/>
      <point x="71" y="489" type="qcurve" smooth="yes"/>
      <point x="71" y="538"/>
      <point x="109" y="625"/>
      <point x="173" y="689"/>
      <point x="260" y="727"/>
      <point x="309" y="727" type="qcurve" smooth="yes"/>
      <point x="358" y="727"/>
      <point x="444" y="689"/>
      <point x="509" y="625"/>
      <point x="546" y="538"/>
      <point x="546" y="489" type="qcurve" smooth="yes"/>
      <point x="546" y="436"/>
      <point x="504" y="346"/>
      <point x="468" y="313" type="qcurve" smooth="yes"/>
      <point x="250" y="119" type="line"/>
    </contour>
  </outline>
</glyph>
<glyph name="three" format="1">
  <advance width="617"/>
  <unicode hex="0033"/>
  <outline>
    <contour>
      <point x="133" y="593" type="line"/>
      <point x="133" y="712" type="line"/>
      <point x="546" y="712" type="line"/>
      <point x="546" y="593" type="line"/>
      <point x="445" y="461" type="line"/>
      <point x="491" y="424"/>
      <point x="546" y="316"/>
      <point x="546" y="252" type="qcurve" smooth="yes"/>
      <point x="546" y="197"/>
      <point x="504" y="100"/>
      <point x="432" y="28"/>
      <point x="335" y="-14"/>
      <point x="280" y="-14" type="qcurve" smooth="yes"/>
      <point x="216" y="-14"/>
      <point x="108" y="41"/>
      <point x="71" y="87" type="qcurve"/>
      <point x="164" y="161" type="line"/>
      <point x="184" y="135"/>
      <point x="245" y="105"/>
      <point x="280" y="105" type="qcurve" smooth="yes"/>
      <point x="311" y="105"/>
      <point x="364" y="128"/>
      <point x="404" y="168"/>
      <point x="427" y="222"/>
      <point x="427" y="252" type="qcurve" smooth="yes"/>
      <point x="427" y="287"/>
      <point x="398" y="346"/>
      <point x="373" y="366" type="qcurve" smooth="yes"/>
      <point x="278" y="438" type="line"/>
      <point x="397" y="593" type="line"/>
    </contour>
  </outline>
</glyph>
<glyph name="four" format="1">
  <advance width="617"/>
  <unicode hex="0034"/>
  <outline>
    <contour>
      <point x="508" y="249" type="line"/>
      <point x="546" y="249" type="line"/>
      <point x="546" y="130" type="line"/>
      <point x="508" y="130" type="line"/>
      <point x="508" y="0" type="line"/>
      <point x="389" y="0" type="line"/>
      <point x="389" y="130" type="line"/>
      <point x="71" y="130" type="line"/>
      <point x="71" y="249" type="line"/>
      <point x="389" y="712" type="line"/>
      <point x="508" y="712" type="line"/>
    </contour>
    <contour>
      <point x="389" y="249" type="line"/>
      <point x="389" y="503" type="line"/>
      <point x="215" y="249" type="line"/>
    </contour>
  </outline>
</glyph>
<glyph name="five" format="1">
  <advance width="617"/>
  <unicode hex="0035"/>
  <outline>
    <contour>
      <point x="280" y="518" type="qcurve" smooth="yes"/>
      <point x="335" y="518"/>
      <point x="432" y="476"/>
      <point x="504" y="404"/>
      <point x="546" y="307"/>
      <point x="546" y="252" type="qcurve" smooth="yes"/>
      <point x="546" y="197"/>
      <point x="504" y="100"/>
      <point x="432" y="28"/>
      <point x="335" y="-14"/>
      <point x="280" y="-14" type="qcurve" smooth="yes"/>
      <point x="216" y="-14"/>
      <point x="108" y="41"/>
      <point x="71" y="88" type="qcurve"/>
      <point x="164" y="161" type="line"/>
      <point x="184" y="135"/>
      <point x="245" y="105"/>
      <point x="280" y="105" type="qcurve" smooth="yes"/>
      <point x="310" y="105"/>
      <point x="364" y="128"/>
      <point x="404" y="168"/>
      <point x="427" y="222"/>
      <point x="427" y="252" type="qcurve" smooth="yes"/>
      <point x="427" y="287"/>
      <point x="398" y="346"/>
      <point x="373" y="366" type="qcurve" smooth="yes"/>
      <point x="332" y="399"/>
      <point x="280" y="399" type="qcurve" smooth="yes"/>
      <point x="245" y="399"/>
      <point x="184" y="369"/>
      <point x="164" y="343" type="qcurve"/>
      <point x="71" y="416" type="line"/>
      <point x="71" y="593" type="line"/>
      <point x="71" y="712" type="line"/>
      <point x="484" y="712" type="line"/>
      <point x="484" y="593" type="line"/>
      <point x="190" y="593" type="line"/>
      <point x="190" y="502" type="line"/>
      <point x="211" y="510"/>
      <point x="256" y="518"/>
    </contour>
  </outline>
</glyph>
<glyph name="seven" format="1">
  <advance width="617"/>
  <unicode hex="0037"/>
  <outline>
    <contour>
      <point x="71" y="0" type="line"/>
      <point x="409" y="593" type="line"/>
      <point x="71" y="593" type="line"/>
      <point x="71" y="712" type="line"/>
      <point x="546" y="712" type="line"/>
      <point x="546" y="593" type="line"/>
      <point x="208" y="0" type="line"/>
    </contour>
  </outline>
</glyph>
<glyph name="eight" format="1">
  <advance width="617"/>
  <unicode hex="0038"/>
  <outline>
    <contour>
      <point x="190" y="223" type="qcurve" smooth="yes"/>
      <point x="190" y="199"/>
      <point x="209" y="156"/>
      <point x="241" y="124"/>
      <point x="284" y="105"/>
      <point x="309" y="105" type="qcurve" smooth="yes"/>
      <point x="333" y="105"/>
      <point x="376" y="124"/>
      <point x="408" y="156"/>
      <point x="427" y="199"/>
      <point x="427" y="223" type="qcurve" smooth="yes"/>
      <point x="427" y="248"/>
      <point x="408" y="291"/>
      <point x="376" y="323"/>
      <point x="333" y="342"/>
      <point x="309" y="342" type="qcurve" smooth="yes"/>
      <point x="284" y="342"/>
      <point x="241" y="323"/>
      <point x="209" y="291"/>
      <point x="190" y="248"/>
    </contour>
    <contour>
      <point x="455" y="410" type="qcurve"/>
      <point x="497" y="378"/>
      <point x="546" y="280"/>
      <point x="546" y="223" type="qcurve" smooth="yes"/>
      <point x="546" y="174"/>
      <point x="509" y="88"/>
      <point x="444" y="23"/>
      <point x="358" y="-14"/>
      <point x="309" y="-14" type="qcurve" smooth="yes"/>
      <point x="260" y="-14"/>
      <point x="173" y="23"/>
      <point x="109" y="88"/>
      <point x="71" y="174"/>
      <point x="71" y="223" type="qcurve" smooth="yes"/>
      <point x="71" y="280"/>
      <point x="120" y="378"/>
      <point x="162" y="410" type="qcurve"/>
      <point x="141" y="436"/>
      <point x="116" y="499"/>
      <point x="116" y="534" type="qcurve" smooth="yes"/>
      <point x="116" y="574"/>
      <point x="146" y="644"/>
      <point x="199" y="697"/>
      <point x="269" y="727"/>
      <point x="309" y="727" type="qcurve" smooth="yes"/>
      <point x="349" y="727"/>
      <point x="419" y="697"/>
      <point x="471" y="644"/>
      <point x="501" y="574"/>
      <point x="501" y="534" type="qcurve" smooth="yes"/>
      <point x="501" y="499"/>
      <point x="477" y="436"/>
    </contour>
    <contour>
      <point x="235" y="534" type="qcurve" smooth="yes"/>
      <point x="235" y="504"/>
      <point x="278" y="461"/>
      <point x="309" y="461" type="qcurve" smooth="yes"/>
      <point x="339" y="461"/>
      <point x="382" y="504"/>
      <point x="382" y="534" type="qcurve" smooth="yes"/>
      <point x="382" y="565"/>
      <point x="339" y="608"/>
      <point x="309" y="608" type="qcurve" smooth="yes"/>
      <point x="278" y="608"/>
      <point x="235" y="565"/>
    </contour>
  </outline>
</glyph>
<glyph name="nine" format="1">
  <advance width="617"/>
  <unicode hex="0039"/>
  <outline>
    <contour>
      <point x="427" y="489" type="qcurve" smooth="yes"/>
      <point x="427" y="514"/>
      <point x="408" y="557"/>
      <point x="376" y="589"/>
      <point x="333" y="608"/>
      <point x="309" y="608" type="qcurve" smooth="yes"/>
      <point x="284" y="608"/>
      <point x="241" y="589"/>
      <point x="209" y="557"/>
      <point x="190" y="514"/>
      <point x="190" y="489" type="qcurve" smooth="yes"/>
      <point x="190" y="465"/>
      <point x="209" y="422"/>
      <point x="241" y="390"/>
      <point x="284" y="371"/>
      <point x="309" y="371" type="qcurve" smooth="yes"/>
      <point x="333" y="371"/>
      <point x="376" y="390"/>
      <point x="408" y="422"/>
      <point x="427" y="465"/>
    </contour>
    <contour>
      <point x="546" y="223" type="line" smooth="yes"/>
      <point x="546" y="174"/>
      <point x="509" y="88"/>
      <point x="444" y="23"/>
      <point x="358" y="-14"/>
      <point x="309" y="-14" type="qcurve" smooth="yes"/>
      <point x="260" y="-14"/>
      <point x="173" y="23"/>
      <point x="109" y="88"/>
      <point x="71" y="174"/>
      <point x="71" y="223" type="qcurve"/>
      <point x="190" y="223" type="line"/>
      <point x="190" y="199"/>
      <point x="209" y="156"/>
      <point x="241" y="124"/>
      <point x="284" y="105"/>
      <point x="309" y="105" type="qcurve" smooth="yes"/>
      <point x="333" y="105"/>
      <point x="376" y="124"/>
      <point x="408" y="156"/>
      <point x="427" y="199"/>
      <point x="427" y="223" type="qcurve" smooth="yes"/>
      <point x="427" y="284" type="line"/>
      <point x="401" y="269"/>
      <point x="341" y="252"/>
      <point x="309" y="252" type="qcurve" smooth="yes"/>
      <point x="260" y="252"/>
      <point x="173" y="289"/>
      <point x="109" y="354"/>
      <point x="71" y="440"/>
      <point x="71" y="489" type="qcurve" smooth="yes"/>
      <point x="71" y="538"/>
      <point x="109" y="625"/>
      <point x="173" y="689"/>
      <point x="260" y="727"/>
      <point x="309" y="727" type="qcurve" smooth="yes"/>
      <point x="358" y="727"/>
      <point x="444" y="689"/>
      <point x="509" y="625"/>
      <point x="546" y="538"/>
      <point x="546" y="489" type="qcurve" smooth="yes"/>
    </contour>
  </outline>
</glyph>
<glyph name="colon" format="1">
  <advance width="261"/>
  <unicode hex="003A"/>
  <outline>
    <contour>
      <point x="71" y="0" type="line"/>
      <point x="71" y="119" type="line"/>
      <point x="190" y="119" type="line"/>
      <point x="190" y="0" type="line"/>
    </contour>
    <contour>
      <point x="71" y="257" type="line"/>
      <point x="71" y="376" type="line"/>
      <point x="190" y="376" type="line"/>
      <point x="190" y="257" type="line"/>
    </contour>
  </outline>
</glyph>
<glyph name="semicolon" format="1">
  <advance width="261"/>
  <unicode hex="003B"/>
  <outline>
    <contour>
      <point x="71" y="-59" type="line"/>
      <point x="71" y="119" type="line"/>
      <point x="190" y="119" type="line"/>
      <point x="190" y="0" type="line"/>
    </contour>
    <contour>
      <point x="71" y="257" type="line"/>
      <point x="71" y="376" type="line"/>
      <point x="190" y="376" type="line"/>
      <point x="190" y="257" type="line"/>
    </contour>
  </outline>
</glyph>
<glyph name="less" format="1">
  <advance width="613"/>
  <unicode hex="003C"/>
  <outline>
    <contour>
      <point x="542" y="29" type="line"/>
      <point x="71" y="301" type="line"/>
      <point x="71" y="402" type="line"/>
      <point x="542" y="674" type="line"/>
      <point x="542" y="571" type="line"/>
      <point x="159" y="351" type="line"/>
      <point x="542" y="131" type="line"/>
    </contour>
  </outline>
</glyph>
<glyph name="equal" format="1">
  <advance width="624"/>
  <unicode hex="003D"/>
  <outline>
    <contour>
      <point x="363" y="363" type="line"/>
      <point x="263" y="363" type="line"/>
      <point x="71" y="363" type="line"/>
      <point x="71" y="463" type="line"/>
      <point x="262" y="463" type="line"/>
      <point x="362" y="463" type="line"/>
      <point x="553" y="463" type="line"/>
      <point x="553" y="363" type="line"/>
    </contour>
    <contour>
      <point x="363" y="163" type="line"/>
      <point x="263" y="163" type="line"/>
      <point x="71" y="163" type="line"/>
      <point x="71" y="263" type="line"/>
      <point x="262" y="263" type="line"/>
      <point x="362" y="263" type="line"/>
      <point x="553" y="263" type="line"/>
      <point x="553" y="163" type="line"/>
    </contour>
  </outline>
</glyph>
<glyph name="greater" format="1">
  <advance width="613"/>
  <unicode hex="003E"/>
  <outline>
    <contour>
      <point x="71" y="130" type="line"/>
      <point x="454" y="350" type="line"/>
      <point x="71" y="570" type="line"/>
      <point x="71" y="673" type="line"/>
      <point x="542" y="401" type="line"/>
      <point x="542" y="300" type="line"/>
      <point x="71" y="28" type="line"/>
    </contour>
  </outline>
</glyph>
<glyph name="question" format="1">
  <advance width="462"/>
  <unicode hex="003F"/>
  <outline>
    <contour>
      <point x="170" y="241" type="line" smooth="yes"/>
      <point x="170" y="270"/>
      <point x="179" y="314"/>
      <point x="196" y="337" type="qcurve" smooth="yes"/>
      <point x="285" y="461" type="line" smooth="yes"/>
      <point x="310" y="495"/>
      <point x="310" y="527" type="qcurve" smooth="yes"/>
      <point x="310" y="548"/>
      <point x="294" y="581"/>
      <point x="269" y="604"/>
      <point x="239" y="616"/>
      <point x="224" y="616" type="qcurve" smooth="yes"/>
      <point x="186" y="616"/>
      <point x="132" y="567"/>
      <point x="132" y="507" type="qcurve"/>
      <point x="30" y="507" type="line"/>
      <point x="30" y="527" type="line" smooth="yes"/>
      <point x="30" y="567"/>
      <point x="61" y="637"/>
      <point x="113" y="688"/>
      <point x="181" y="718"/>
      <point x="219" y="718" type="qcurve" smooth="yes"/>
      <point x="256" y="718"/>
      <point x="326" y="691"/>
      <point x="380" y="641"/>
      <point x="412" y="570"/>
      <point x="412" y="526" type="qcurve" smooth="yes"/>
      <point x="412" y="494"/>
      <point x="395" y="442"/>
      <point x="380" y="421" type="qcurve" smooth="yes"/>
      <point x="289" y="296" type="line" smooth="yes"/>
      <point x="278" y="282"/>
      <point x="272" y="253"/>
      <point x="272" y="233" type="qcurve" smooth="yes"/>
      <point x="272" y="176" type="line"/>
      <point x="170" y="176" type="line"/>
    </contour>
    <contour>
      <point x="170" y="102" type="line"/>
      <point x="272" y="102" type="line"/>
      <point x="272" y="0" type="line"/>
      <point x="170" y="0" type="line"/>
    </contour>
  </outline>
</glyph>
<glyph name="at" format="1">
  <advance width="913"/>
  <unicode hex="0040"/>
  <outline>
    <contour>
      <point x="554" y="-49" type="line" smooth="yes"/>
      <point x="619" y="-49"/>
      <point x="732" y="0"/>
      <point x="774" y="42" type="qcurve"/>
      <point x="827" y="-10" type="line"/>
      <point x="774" y="-63"/>
      <point x="634" y="-123"/>
      <point x="554" y="-123" type="qcurve" smooth="yes"/>
      <point x="456" y="-123" type="line" smooth="yes"/>
      <point x="376" y="-123"/>
      <point x="236" y="-63"/>
      <point x="184" y="-10" type="qcurve" smooth="yes"/>
      <point x="131" y="43"/>
      <point x="71" y="182"/>
      <point x="71" y="263" type="qcurve" smooth="yes"/>
      <point x="71" y="457" type="line" smooth="yes"/>
      <point x="71" y="537"/>
      <point x="131" y="677"/>
      <point x="184" y="729" type="qcurve" smooth="yes"/>
      <point x="236" y="782"/>
      <point x="376" y="842"/>
      <point x="456" y="842" type="qcurve" smooth="yes"/>
      <point x="537" y="842"/>
      <point x="676" y="782"/>
      <point x="729" y="729" type="qcurve" smooth="yes"/>
      <point x="782" y="677"/>
      <point x="842" y="537"/>
      <point x="842" y="457" type="qcurve" smooth="yes"/>
      <point x="842" y="376"/>
      <point x="782" y="236"/>
      <point x="729" y="184" type="qcurve" smooth="yes"/>
      <point x="684" y="139"/>
      <point x="570" y="82"/>
      <point x="504" y="74" type="qcurve" smooth="yes"/>
      <point x="496" y="72"/>
      <point x="482" y="71"/>
      <point x="475" y="71" type="qcurve" smooth="yes"/>
      <point x="468" y="71" type="line"/>
      <point x="456" y="71" type="line"/>
      <point x="456" y="72" type="line"/>
      <point x="422" y="76"/>
      <point x="364" y="108"/>
      <point x="321" y="158"/>
      <point x="296" y="224"/>
      <point x="296" y="261" type="qcurve" smooth="yes"/>
      <point x="296" y="300"/>
      <point x="324" y="369"/>
      <point x="373" y="420"/>
      <point x="438" y="450"/>
      <point x="475" y="450" type="qcurve" smooth="yes"/>
      <point x="493" y="450"/>
      <point x="533" y="439"/>
      <point x="567" y="425" type="qcurve"/>
      <point x="567" y="498" type="line" smooth="yes"/>
      <point x="567" y="533"/>
      <point x="521" y="582"/>
      <point x="489" y="582" type="qcurve" smooth="yes"/>
      <point x="461" y="582"/>
      <point x="419" y="545"/>
      <point x="413" y="517" type="qcurve"/>
      <point x="326" y="517" type="line"/>
      <point x="329" y="550"/>
      <point x="357" y="607"/>
      <point x="401" y="649"/>
      <point x="457" y="673"/>
      <point x="489" y="673" type="qcurve" smooth="yes"/>
      <point x="523" y="673"/>
      <point x="583" y="646"/>
      <point x="627" y="598"/>
      <point x="653" y="534"/>
      <point x="653" y="498" type="qcurve" smooth="yes"/>
      <point x="653" y="215" type="line"/>
      <point x="677" y="236" type="line"/>
      <point x="719" y="279"/>
      <point x="768" y="391"/>
      <point x="768" y="457" type="qcurve" smooth="yes"/>
      <point x="768" y="522"/>
      <point x="719" y="634"/>
      <point x="677" y="677" type="qcurve" smooth="yes"/>
      <point x="634" y="719"/>
      <point x="521" y="768"/>
      <point x="456" y="768" type="qcurve" smooth="yes"/>
      <point x="391" y="768"/>
      <point x="279" y="719"/>
      <point x="236" y="677" type="qcurve" smooth="yes"/>
      <point x="194" y="634"/>
      <point x="145" y="522"/>
      <point x="145" y="457" type="qcurve" smooth="yes"/>
      <point x="145" y="263" type="line" smooth="yes"/>
      <point x="145" y="198"/>
      <point x="194" y="85"/>
      <point x="236" y="42" type="qcurve" smooth="yes"/>
      <point x="279" y="0"/>
      <point x="391" y="-49"/>
      <point x="456" y="-49" type="qcurve" smooth="yes"/>
    </contour>
    <contour>
      <point x="382" y="261" type="qcurve" smooth="yes"/>
      <point x="382" y="241"/>
      <point x="397" y="205"/>
      <point x="422" y="178"/>
      <point x="456" y="162"/>
      <point x="475" y="162" type="qcurve" smooth="yes"/>
      <point x="494" y="162"/>
      <point x="527" y="178"/>
      <point x="552" y="205"/>
      <point x="567" y="241"/>
      <point x="567" y="261" type="qcurve" smooth="yes"/>
      <point x="567" y="281"/>
      <point x="552" y="316"/>
      <point x="527" y="343"/>
      <point x="494" y="359"/>
      <point x="475" y="359" type="qcurve" smooth="yes"/>
      <point x="456" y="359"/>
      <point x="422" y="343"/>
      <point x="397" y="316"/>
      <point x="382" y="281"/>
    </contour>
  </outline>
</glyph>
<glyph name="B" format="1">
  <advance width="617"/>
  <unicode hex="0042"/>
  <outline>
    <contour>
      <point x="427" y="228" type="qcurve" smooth="yes"/>
      <point x="427" y="250"/>
      <point x="410" y="290"/>
      <point x="380" y="320"/>
      <point x="340" y="337"/>
      <point x="318" y="337" type="qcurve" smooth="yes"/>
      <point x="190" y="337" type="line"/>
      <point x="190" y="119" type="line"/>
      <point x="318" y="119" type="line" smooth="yes"/>
      <point x="340" y="119"/>
      <point x="380" y="136"/>
      <point x="410" y="166"/>
      <point x="427" y="205"/>
    </contour>
    <contour>
      <point x="453" y="412" type="qcurve"/>
      <point x="495" y="380"/>
      <point x="546" y="285"/>
      <point x="546" y="228" type="qcurve" smooth="yes"/>
      <point x="546" y="181"/>
      <point x="510" y="98"/>
      <point x="448" y="36"/>
      <point x="365" y="0"/>
      <point x="318" y="0" type="qcurve" smooth="yes"/>
      <point x="71" y="0" type="line"/>
      <point x="71" y="712" type="line"/>
      <point x="318" y="712" type="line" smooth="yes"/>
      <point x="355" y="712"/>
      <point x="421" y="684"/>
      <point x="471" y="635"/>
      <point x="499" y="569"/>
      <point x="499" y="532" type="qcurve" smooth="yes"/>
      <point x="499" y="497"/>
      <point x="474" y="436"/>
    </contour>
    <contour>
      <point x="380" y="532" type="qcurve" smooth="yes"/>
      <point x="380" y="558"/>
      <point x="344" y="593"/>
      <point x="318" y="593" type="qcurve" smooth="yes"/>
      <point x="190" y="593" type="line"/>
      <point x="190" y="470" type="line"/>
      <point x="318" y="470" type="line" smooth="yes"/>
      <point x="344" y="470"/>
      <point x="380" y="506"/>
    </contour>
  </outline>
</glyph>
<glyph name="D" format="1">
  <advance width="617"/>
  <unicode hex="0044"/>
  <outline>
    <contour>
      <point x="71" y="0" type="line"/>
      <point x="71" y="712" type="line"/>
      <point x="309" y="712" type="line" smooth="yes"/>
      <point x="358" y="712"/>
      <point x="444" y="675"/>
      <point x="509" y="610"/>
      <point x="546" y="524"/>
      <point x="546" y="475" type="qcurve" smooth="yes"/>
      <point x="546" y="237" type="line" smooth="yes"/>
      <point x="546" y="188"/>
      <point x="509" y="102"/>
      <point x="444" y="37"/>
      <point x="358" y="0"/>
      <point x="309" y="0" type="qcurve" smooth="yes"/>
    </contour>
    <contour>
      <point x="427" y="475" type="line" smooth="yes"/>
      <point x="427" y="499"/>
      <point x="408" y="542"/>
      <point x="376" y="574"/>
      <point x="333" y="593"/>
      <point x="309" y="593" type="qcurve" smooth="yes"/>
      <point x="190" y="593" type="line"/>
      <point x="190" y="119" type="line"/>
      <point x="309" y="119" type="line" smooth="yes"/>
      <point x="333" y="119"/>
      <point x="376" y="138"/>
      <point x="408" y="170"/>
      <point x="427" y="213"/>
      <point x="427" y="237" type="qcurve" smooth="yes"/>
    </contour>
  </outline>
</glyph>
<glyph name="E" format="1">
  <advance width="536"/>
  <unicode hex="0045"/>
  <outline>
    <contour>
      <point x="71" y="712" type="line"/>
      <point x="465" y="712" type="line"/>
      <point x="465" y="593" type="line"/>
      <point x="190" y="593" type="line"/>
      <point x="190" y="458" type="line"/>
      <point x="408" y="458" type="line"/>
      <point x="408" y="339" type="line"/>
      <point x="190" y="339" type="line"/>
      <point x="190" y="119" type="line"/>
      <point x="465" y="119" type="line"/>
      <point x="465" y="0" type="line"/>
      <point x="71" y="0" type="line"/>
    </contour>
  </outline>
</glyph>
<glyph name="H" format="1">
  <advance width="617"/>
  <unicode hex="0048"/>
  <outline>
    <contour>
      <point x="546" y="712" type="line"/>
      <point x="546" y="0" type="line"/>
      <point x="427" y="0" type="line"/>
      <point x="427" y="339" type="line"/>
      <point x="190" y="339" type="line"/>
      <point x="190" y="0" type="line"/>
      <point x="71" y="0" type="line"/>
      <point x="71" y="712" type="line"/>
      <point x="190" y="712" type="line"/>
      <point x="190" y="458" type="line"/>
      <point x="427" y="458" type="line"/>
      <point x="427" y="712" type="line"/>
    </contour>
  </outline>
</glyph>
<glyph name="I" format="1">
  <advance width="261"/>
  <unicode hex="0049"/>
  <outline>
    <contour>
      <point x="71" y="0" type="line"/>
      <point x="71" y="712" type="line"/>
      <point x="190" y="712" type="line"/>
      <point x="190" y="0" type="line"/>
    </contour>
  </outline>
</glyph>
<glyph name="J" format="1">
  <advance width="617"/>
  <unicode hex="004A"/>
  <outline>
    <contour>
      <point x="546" y="223" type="line" smooth="yes"/>
      <point x="546" y="125"/>
      <point x="407" y="-14"/>
      <point x="309" y="-14" type="qcurve" smooth="yes"/>
      <point x="209" y="-14"/>
      <point x="71" y="127"/>
      <point x="71" y="223" type="qcurve"/>
      <point x="190" y="223" type="line"/>
      <point x="190" y="175"/>
      <point x="260" y="105"/>
      <point x="357" y="105"/>
      <point x="427" y="175"/>
      <point x="427" y="223" type="qcurve" smooth="yes"/>
      <point x="427" y="712" type="line"/>
      <point x="546" y="712" type="line"/>
    </contour>
  </outline>
</glyph>
<glyph name="K" format="1">
  <advance width="617"/>
  <unicode hex="004B"/>
  <outline>
    <contour>
      <point x="413" y="0" type="line"/>
      <point x="220" y="386" type="line"/>
      <point x="190" y="356" type="line"/>
      <point x="190" y="0" type="line"/>
      <point x="71" y="0" type="line"/>
      <point x="71" y="712" type="line"/>
      <point x="190" y="712" type="line"/>
      <point x="190" y="524" type="line"/>
      <point x="378" y="712" type="line"/>
      <point x="546" y="712" type="line"/>
      <point x="309" y="475" type="line"/>
      <point x="546" y="0" type="line"/>
    </contour>
  </outline>
</glyph>
<glyph name="L" format="1">
  <advance width="536"/>
  <unicode hex="004C"/>
  <outline>
    <contour>
      <point x="465" y="119" type="line"/>
      <point x="465" y="0" type="line"/>
      <point x="71" y="0" type="line"/>
      <point x="71" y="712" type="line"/>
      <point x="190" y="712" type="line"/>
      <point x="190" y="119" type="line"/>
    </contour>
  </outline>
</glyph>
<glyph name="M" format="1">
  <advance width="617"/>
  <unicode hex="004D"/>
  <outline>
    <contour>
      <point x="546" y="712" type="line"/>
      <point x="546" y="0" type="line"/>
      <point x="427" y="0" type="line"/>
      <point x="427" y="475" type="line"/>
      <point x="309" y="269" type="line"/>
      <point x="190" y="475" type="line"/>
      <point x="190" y="0" type="line"/>
      <point x="71" y="0" type="line"/>
      <point x="71" y="712" type="line"/>
      <point x="190" y="712" type="line"/>
      <point x="309" y="506" type="line"/>
      <point x="427" y="712" type="line"/>
    </contour>
  </outline>
</glyph>
<glyph name="P" format="1">
  <advance width="617"/>
  <unicode hex="0050"/>
  <outline>
    <contour>
      <point x="318" y="375" type="line" smooth="yes"/>
      <point x="340" y="375"/>
      <point x="380" y="392"/>
      <point x="410" y="422"/>
      <point x="427" y="461"/>
      <point x="427" y="484" type="qcurve" smooth="yes"/>
      <point x="427" y="507"/>
      <point x="410" y="547"/>
      <point x="380" y="576"/>
      <point x="340" y="593"/>
      <point x="318" y="593" type="qcurve" smooth="yes"/>
      <point x="190" y="593" type="line"/>
      <point x="190" y="375" type="line"/>
    </contour>
    <contour>
      <point x="546" y="484" type="qcurve" smooth="yes"/>
      <point x="546" y="437"/>
      <point x="510" y="354"/>
      <point x="448" y="292"/>
      <point x="365" y="256"/>
      <point x="318" y="256" type="qcurve" smooth="yes"/>
      <point x="190" y="256" type="line"/>
      <point x="190" y="0" type="line"/>
      <point x="71" y="0" type="line"/>
      <point x="71" y="712" type="line"/>
      <point x="318" y="712" type="line" smooth="yes"/>
      <point x="365" y="712"/>
      <point x="448" y="676"/>
      <point x="510" y="614"/>
      <point x="546" y="531"/>
    </contour>
  </outline>
</glyph>
<glyph name="Q" format="1">
  <advance width="617"/>
  <unicode hex="0051"/>
  <outline>
    <contour>
      <point x="190" y="223" type="line" smooth="yes"/>
      <point x="190" y="199"/>
      <point x="209" y="156"/>
      <point x="241" y="124"/>
      <point x="284" y="105"/>
      <point x="309" y="105" type="qcurve" smooth="yes"/>
      <point x="324" y="105"/>
      <point x="338" y="108" type="qcurve"/>
      <point x="272" y="223" type="line"/>
      <point x="409" y="223" type="line"/>
      <point x="424" y="197" type="line"/>
      <point x="427" y="209"/>
      <point x="427" y="223" type="qcurve" smooth="yes"/>
      <point x="427" y="475" type="line" smooth="yes"/>
      <point x="427" y="499"/>
      <point x="408" y="542"/>
      <point x="376" y="574"/>
      <point x="333" y="593"/>
      <point x="309" y="593" type="qcurve" smooth="yes"/>
      <point x="284" y="593"/>
      <point x="241" y="574"/>
      <point x="209" y="542"/>
      <point x="190" y="499"/>
      <point x="190" y="475" type="qcurve" smooth="yes"/>
    </contour>
    <contour>
      <point x="71" y="475" type="line" smooth="yes"/>
      <point x="71" y="524"/>
      <point x="109" y="610"/>
      <point x="173" y="675"/>
      <point x="260" y="712"/>
      <point x="309" y="712" type="qcurve" smooth="yes"/>
      <point x="358" y="712"/>
      <point x="444" y="675"/>
      <point x="509" y="610"/>
      <point x="546" y="524"/>
      <point x="546" y="475" type="qcurve" smooth="yes"/>
      <point x="546" y="223" type="line" smooth="yes"/>
      <point x="546" y="181"/>
      <point x="519" y="106"/>
      <point x="494" y="75" type="qcurve"/>
      <point x="546" y="-14" type="line"/>
      <point x="409" y="-14" type="line"/>
      <point x="399" y="4" type="line"/>
      <point x="357" y="-14"/>
      <point x="309" y="-14" type="qcurve" smooth="yes"/>
      <point x="260" y="-14"/>
      <point x="173" y="23"/>
      <point x="109" y="88"/>
      <point x="71" y="174"/>
      <point x="71" y="223" type="qcurve" smooth="yes"/>
    </contour>
  </outline>
</glyph>
<glyph name="S" format="1">
  <advance width="617"/>
  <unicode hex="0053"/>
  <outline>
    <contour>
      <point x="190" y="223" type="line"/>
      <point x="190" y="199"/>
      <point x="209" y="156"/>
      <point x="241" y="124"/>
      <point x="284" y="105"/>
      <point x="309" y="105" type="qcurve" smooth="yes"/>
      <point x="333" y="105"/>
      <point x="376" y="124"/>
      <point x="408" y="156"/>
      <point x="427" y="199"/>
      <point x="427" y="223" type="qcurve" smooth="yes"/>
      <point x="427" y="248"/>
      <point x="408" y="291"/>
      <point x="376" y="323"/>
      <point x="333" y="342"/>
      <point x="309" y="342" type="qcurve" smooth="yes"/>
      <point x="269" y="342"/>
      <point x="199" y="372"/>
      <point x="146" y="424"/>
      <point x="116" y="494"/>
      <point x="116" y="534" type="qcurve" smooth="yes"/>
      <point x="116" y="574"/>
      <point x="146" y="644"/>
      <point x="199" y="697"/>
      <point x="269" y="727"/>
      <point x="309" y="727" type="qcurve" smooth="yes"/>
      <point x="349" y="727"/>
      <point x="419" y="697"/>
      <point x="471" y="644"/>
      <point x="501" y="574"/>
      <point x="501" y="534" type="qcurve"/>
      <point x="382" y="534" type="line"/>
      <point x="382" y="565"/>
      <point x="339" y="608"/>
      <point x="309" y="608" type="qcurve" smooth="yes"/>
      <point x="278" y="608"/>
      <point x="235" y="565"/>
      <point x="235" y="534" type="qcurve" smooth="yes"/>
      <point x="235" y="504"/>
      <point x="278" y="461"/>
      <point x="309" y="461" type="qcurve" smooth="yes"/>
      <point x="358" y="461"/>
      <point x="444" y="423"/>
      <point x="509" y="359"/>
      <point x="546" y="272"/>
      <point x="546" y="223" type="qcurve" smooth="yes"/>
      <point x="546" y="174"/>
      <point x="509" y="88"/>
      <point x="444" y="23"/>
      <point x="358" y="-14"/>
      <point x="309" y="-14" type="qcurve" smooth="yes"/>
      <point x="260" y="-14"/>
      <point x="173" y="23"/>
      <point x="109" y="88"/>
      <point x="71" y="174"/>
      <point x="71" y="223" type="qcurve"/>
    </contour>
  </outline>
</glyph>
<glyph name="T" format="1">
  <advance width="574"/>
  <unicode hex="0054"/>
  <outline>
    <contour>
      <point x="503" y="593" type="line"/>
      <point x="347" y="593" type="line"/>
      <point x="347" y="0" type="line"/>
      <point x="228" y="0" type="line"/>
      <point x="228" y="593" type="line"/>
      <point x="71" y="593" type="line"/>
      <point x="71" y="712" type="line"/>
      <point x="503" y="712" type="line"/>
    </contour>
  </outline>
</glyph>
<glyph name="V" format="1">
  <advance width="617"/>
  <unicode hex="0056"/>
  <outline>
    <contour>
      <point x="249" y="0" type="line"/>
      <point x="71" y="712" type="line"/>
      <point x="194" y="712" type="line"/>
      <point x="309" y="252" type="line"/>
      <point x="424" y="712" type="line"/>
      <point x="546" y="712" type="line"/>
      <point x="368" y="0" type="line"/>
    </contour>
  </outline>
</glyph>
<glyph name="W" format="1">
  <advance width="717"/>
  <unicode hex="0057"/>
  <outline>
    <contour>
      <point x="299" y="0" type="line"/>
      <point x="180" y="0" type="line"/>
      <point x="71" y="712" type="line"/>
      <point x="191" y="712" type="line"/>
      <point x="263" y="247" type="line"/>
      <point x="358" y="510" type="line"/>
      <point x="454" y="247" type="line"/>
      <point x="526" y="712" type="line"/>
      <point x="646" y="712" type="line"/>
      <point x="537" y="0" type="line"/>
      <point x="418" y="0" type="line"/>
      <point x="358" y="163" type="line"/>
    </contour>
  </outline>
</glyph>
<glyph name="X" format="1">
  <advance width="617"/>
  <unicode hex="0058"/>
  <outline>
    <contour>
      <point x="546" y="712" type="line"/>
      <point x="546" y="712" type="line"/>
      <point x="416" y="712" type="line"/>
      <point x="309" y="491" type="line"/>
      <point x="202" y="712" type="line"/>
      <point x="71" y="712" type="line"/>
      <point x="243" y="356" type="line"/>
      <point x="71" y="0" type="line"/>
      <point x="202" y="0" type="line"/>
      <point x="309" y="221" type="line"/>
      <point x="416" y="0" type="line"/>
      <point x="546" y="0" type="line"/>
      <point x="374" y="356" type="line"/>
    </contour>
  </outline>
</glyph>
<glyph name="Y" format="1">
  <advance width="617"/>
  <unicode hex="0059"/>
  <outline>
    <contour>
      <point x="368" y="356" type="line"/>
      <point x="368" y="0" type="line"/>
      <point x="249" y="0" type="line"/>
      <point x="249" y="356" type="line"/>
      <point x="71" y="712" type="line"/>
      <point x="204" y="712" type="line"/>
      <point x="309" y="503" type="line"/>
      <point x="413" y="712" type="line"/>
      <point x="546" y="712" type="line"/>
    </contour>
  </outline>
</glyph>
<glyph name="Z" format="1">
  <advance width="617"/>
  <unicode hex="005A"/>
  <outline>
    <contour>
      <point x="546" y="593" type="line"/>
      <point x="214" y="119" type="line"/>
      <point x="546" y="119" type="line"/>
      <point x="546" y="0" type="line"/>
      <point x="71" y="0" type="line"/>
      <point x="71" y="119" type="line"/>
      <point x="403" y="593" type="line"/>
      <point x="71" y="593" type="line"/>
      <point x="71" y="712" type="line"/>
      <point x="546" y="712" type="line"/>
    </contour>
  </outline>
</glyph>
<glyph name="backslash" format="1">
  <advance width="833"/>
  <unicode hex="005C"/>
  <outline>
    <contour>
      <point x="8" y="718" type="line"/>
      <point x="86" y="718" type="line"/>
      <point x="325" y="-6" type="line"/>
      <point x="247" y="-6" type="line"/>
    </contour>
  </outline>
</glyph>
<glyph name="bracketright" format="1">
  <advance width="287"/>
  <unicode hex="005D"/>
  <outline>
    <contour>
      <point x="217" y="750" type="line"/>
      <point x="217" y="-62" type="line"/>
      <point x="35" y="-62" type="line"/>
      <point x="35" y="-12" type="line"/>
      <point x="117" y="-12" type="line"/>
      <point x="117" y="700" type="line"/>
      <point x="35" y="700" type="line"/>
      <point x="35" y="750" type="line"/>
    </contour>
  </outline>
</glyph>
<glyph name="asciicircum" format="1">
  <advance width="385"/>
  <unicode hex="005E"/>
  <outline>
    <contour>
      <point x="193" y="897" type="line"/>
      <point x="314" y="778" type="line"/>
      <point x="193" y="897" type="line"/>
      <point x="314" y="778" type="line"/>
      <point x="284" y="748" type="line"/>
      <point x="193" y="837" type="line"/>
      <point x="103" y="748" type="line"/>
      <point x="71" y="778" type="line"/>
    </contour>
  </outline>
</glyph>
<glyph name="grave" format="1">
  <advance width="805"/>
  <unicode hex="0060"/>
  <outline>
    <contour>
      <point x="239" y="886" type="line"/>
      <point x="335" y="790" type="line"/>
      <point x="300" y="755" type="line"/>
      <point x="189" y="836" type="line"/>
    </contour>
  </outline>
</glyph>
<glyph name="b" format="1">
  <advance width="505"/>
  <unicode hex="0062"/>
  <outline>
    <contour>
      <point x="253" y="591" type="qcurve" smooth="yes"/>
      <point x="290" y="591"/>
      <point x="356" y="563"/>
      <point x="406" y="513"/>
      <point x="434" y="447"/>
      <point x="434" y="410" type="qcurve" smooth="yes"/>
      <point x="434" y="182" type="line" smooth="yes"/>
      <point x="434" y="144"/>
      <point x="406" y="78"/>
      <point x="356" y="28"/>
      <point x="290" y="0"/>
      <point x="253" y="0" type="qcurve" smooth="yes"/>
      <point x="237" y="0"/>
      <point x="206" y="5"/>
      <point x="192" y="10" type="qcurve"/>
      <point x="192" y="0" type="line"/>
      <point x="71" y="0" type="line"/>
      <point x="71" y="712" type="line"/>
      <point x="192" y="712" type="line"/>
      <point x="192" y="581" type="line"/>
      <point x="219" y="591"/>
    </contour>
    <contour>
      <point x="313" y="410" type="line" smooth="yes"/>
      <point x="313" y="435"/>
      <point x="278" y="470"/>
      <point x="253" y="470" type="qcurve" smooth="yes"/>
      <point x="227" y="470"/>
      <point x="192" y="435"/>
      <point x="192" y="410" type="qcurve" smooth="yes"/>
      <point x="192" y="182" type="line" smooth="yes"/>
      <point x="192" y="156"/>
      <point x="227" y="121"/>
      <point x="253" y="121" type="qcurve" smooth="yes"/>
      <point x="278" y="121"/>
      <point x="313" y="156"/>
      <point x="313" y="182" type="qcurve" smooth="yes"/>
    </contour>
  </outline>
</glyph>
<glyph name="c" format="1">
  <advance width="505"/>
  <unicode hex="0063"/>
  <outline>
    <contour>
      <point x="434" y="171" type="line"/>
      <point x="434" y="133"/>
      <point x="406" y="67"/>
      <point x="356" y="18"/>
      <point x="290" y="-11"/>
      <point x="253" y="-11" type="qcurve" smooth="yes"/>
      <point x="215" y="-11"/>
      <point x="149" y="18"/>
      <point x="99" y="67"/>
      <point x="71" y="133"/>
      <point x="71" y="171" type="qcurve" smooth="yes"/>
      <point x="71" y="420" type="line" smooth="yes"/>
      <point x="71" y="458"/>
      <point x="99" y="524"/>
      <point x="149" y="574"/>
      <point x="215" y="602"/>
      <point x="253" y="602" type="qcurve" smooth="yes"/>
      <point x="290" y="602"/>
      <point x="356" y="574"/>
      <point x="406" y="524"/>
      <point x="434" y="458"/>
      <point x="434" y="420" type="qcurve"/>
      <point x="313" y="420" type="line"/>
      <point x="313" y="446"/>
      <point x="278" y="481"/>
      <point x="253" y="481" type="qcurve" smooth="yes"/>
      <point x="227" y="481"/>
      <point x="192" y="446"/>
      <point x="192" y="420" type="qcurve" smooth="yes"/>
      <point x="192" y="171" type="line" smooth="yes"/>
      <point x="192" y="146"/>
      <point x="227" y="110"/>
      <point x="253" y="110" type="qcurve" smooth="yes"/>
      <point x="278" y="110"/>
      <point x="313" y="146"/>
      <point x="313" y="171" type="qcurve"/>
    </contour>
  </outline>
</glyph>
<glyph name="f" format="1">
  <advance width="505"/>
  <unicode hex="0066"/>
  <outline>
    <contour>
      <point x="314" y="541" type="line"/>
      <point x="314" y="567"/>
      <point x="278" y="602"/>
      <point x="253" y="602" type="qcurve" smooth="yes"/>
      <point x="227" y="602"/>
      <point x="192" y="567"/>
      <point x="192" y="541" type="qcurve" smooth="yes"/>
      <point x="192" y="417" type="line"/>
      <point x="314" y="417" type="line"/>
      <point x="314" y="296" type="line"/>
      <point x="192" y="296" type="line"/>
      <point x="192" y="0" type="line"/>
      <point x="71" y="0" type="line"/>
      <point x="71" y="541" type="line" smooth="yes"/>
      <point x="71" y="579"/>
      <point x="99" y="645"/>
      <point x="149" y="695"/>
      <point x="215" y="723"/>
      <point x="253" y="723" type="qcurve" smooth="yes"/>
      <point x="290" y="723"/>
      <point x="356" y="695"/>
      <point x="406" y="645"/>
      <point x="434" y="579"/>
      <point x="434" y="541" type="qcurve"/>
    </contour>
  </outline>
</glyph>
<glyph name="h" format="1">
  <advance width="505"/>
  <unicode hex="0068"/>
  <outline>
    <contour>
      <point x="253" y="591" type="qcurve" smooth="yes"/>
      <point x="290" y="591"/>
      <point x="356" y="563"/>
      <point x="406" y="513"/>
      <point x="434" y="447"/>
      <point x="434" y="410" type="qcurve" smooth="yes"/>
      <point x="434" y="0" type="line"/>
      <point x="313" y="0" type="line"/>
      <point x="313" y="410" type="line" smooth="yes"/>
      <point x="313" y="435"/>
      <point x="278" y="470"/>
      <point x="253" y="470" type="qcurve" smooth="yes"/>
      <point x="227" y="470"/>
      <point x="192" y="435"/>
      <point x="192" y="410" type="qcurve" smooth="yes"/>
      <point x="192" y="0" type="line"/>
      <point x="71" y="0" type="line"/>
      <point x="71" y="712" type="line"/>
      <point x="192" y="712" type="line"/>
      <point x="192" y="581" type="line"/>
      <point x="219" y="591"/>
    </contour>
  </outline>
</glyph>
<glyph name="i" format="1">
  <advance width="263"/>
  <unicode hex="0069"/>
  <outline>
    <contour>
      <point x="71" y="712" type="line"/>
      <point x="192" y="712" type="line"/>
      <point x="192" y="651" type="line"/>
      <point x="71" y="651" type="line"/>
    </contour>
    <contour>
      <point x="71" y="0" type="line"/>
      <point x="71" y="591" type="line"/>
      <point x="192" y="591" type="line"/>
      <point x="192" y="0" type="line"/>
    </contour>
  </outline>
</glyph>
<glyph name="j" format="1">
  <advance width="452"/>
  <unicode hex="006A"/>
  <outline>
    <contour>
      <point x="260" y="712" type="line"/>
      <point x="381" y="712" type="line"/>
      <point x="381" y="651" type="line"/>
      <point x="260" y="651" type="line"/>
    </contour>
    <contour>
      <point x="157" y="-43" type="line"/>
      <point x="175" y="-61"/>
      <point x="200" y="-61" type="qcurve" smooth="yes"/>
      <point x="225" y="-61"/>
      <point x="260" y="-25"/>
      <point x="260" y="0" type="qcurve" smooth="yes"/>
      <point x="260" y="591" type="line"/>
      <point x="381" y="591" type="line"/>
      <point x="381" y="0" type="line" smooth="yes"/>
      <point x="381" y="-38"/>
      <point x="353" y="-104"/>
      <point x="303" y="-153"/>
      <point x="237" y="-182"/>
      <point x="200" y="-182" type="qcurve" smooth="yes"/>
      <point x="162" y="-182"/>
      <point x="96" y="-153"/>
      <point x="71" y="-128" type="qcurve"/>
    </contour>
  </outline>
</glyph>
<glyph name="k" format="1">
  <advance width="541"/>
  <unicode hex="006B"/>
  <outline>
    <contour>
      <point x="470" y="0" type="line"/>
      <point x="336" y="0" type="line"/>
      <point x="192" y="296" type="line"/>
      <point x="192" y="0" type="line"/>
      <point x="71" y="0" type="line"/>
      <point x="71" y="712" type="line"/>
      <point x="192" y="712" type="line"/>
      <point x="192" y="472" type="line"/>
      <point x="304" y="591" type="line"/>
      <point x="470" y="591" type="line"/>
      <point x="281" y="390" type="line"/>
    </contour>
  </outline>
</glyph>
<glyph name="l" format="1">
  <advance width="263"/>
  <unicode hex="006C"/>
  <outline>
    <contour>
      <point x="71" y="0" type="line"/>
      <point x="71" y="712" type="line"/>
      <point x="192" y="712" type="line"/>
      <point x="192" y="0" type="line"/>
    </contour>
  </outline>
</glyph>
<glyph name="m" format="1">
  <advance width="748"/>
  <unicode hex="006D"/>
  <outline>
    <contour>
      <point x="495" y="591" type="qcurve" smooth="yes"/>
      <point x="532" y="591"/>
      <point x="599" y="563"/>
      <point x="648" y="513"/>
      <point x="677" y="447"/>
      <point x="677" y="410" type="qcurve" smooth="yes"/>
      <point x="677" y="0" type="line"/>
      <point x="556" y="0" type="line"/>
      <point x="556" y="410" type="line" smooth="yes"/>
      <point x="556" y="435"/>
      <point x="520" y="470"/>
      <point x="495" y="470" type="qcurve" smooth="yes"/>
      <point x="470" y="470"/>
      <point x="434" y="435"/>
      <point x="434" y="410" type="qcurve" smooth="yes"/>
      <point x="434" y="0" type="line"/>
      <point x="313" y="0" type="line"/>
      <point x="313" y="410" type="line" smooth="yes"/>
      <point x="313" y="435"/>
      <point x="278" y="470"/>
      <point x="253" y="470" type="qcurve" smooth="yes"/>
      <point x="227" y="470"/>
      <point x="192" y="435"/>
      <point x="192" y="410" type="qcurve" smooth="yes"/>
      <point x="192" y="0" type="line"/>
      <point x="71" y="0" type="line"/>
      <point x="71" y="591" type="line"/>
      <point x="192" y="591" type="line"/>
      <point x="192" y="581" type="line"/>
      <point x="219" y="591"/>
      <point x="253" y="591" type="qcurve" smooth="yes"/>
      <point x="288" y="591"/>
      <point x="350" y="567"/>
      <point x="374" y="545" type="qcurve"/>
      <point x="398" y="567"/>
      <point x="460" y="591"/>
    </contour>
  </outline>
</glyph>
<glyph name="n" format="1">
  <advance width="505"/>
  <unicode hex="006E"/>
  <outline>
    <contour>
      <point x="253" y="591" type="qcurve" smooth="yes"/>
      <point x="290" y="591"/>
      <point x="356" y="563"/>
      <point x="406" y="513"/>
      <point x="434" y="447"/>
      <point x="434" y="410" type="qcurve" smooth="yes"/>
      <point x="434" y="0" type="line"/>
      <point x="314" y="0" type="line"/>
      <point x="314" y="410" type="line" smooth="yes"/>
      <point x="314" y="435"/>
      <point x="278" y="470"/>
      <point x="253" y="470" type="qcurve" smooth="yes"/>
      <point x="227" y="470"/>
      <point x="192" y="435"/>
      <point x="192" y="410" type="qcurve" smooth="yes"/>
      <point x="192" y="0" type="line"/>
      <point x="71" y="0" type="line"/>
      <point x="71" y="591" type="line"/>
      <point x="192" y="591" type="line"/>
      <point x="192" y="581" type="line"/>
      <point x="219" y="591"/>
    </contour>
  </outline>
</glyph>
<glyph name="q" format="1">
  <advance width="505"/>
  <unicode hex="0071"/>
  <outline>
    <contour>
      <point x="71" y="410" type="line" smooth="yes"/>
      <point x="71" y="447"/>
      <point x="99" y="513"/>
      <point x="149" y="563"/>
      <point x="215" y="591"/>
      <point x="253" y="591" type="qcurve" smooth="yes"/>
      <point x="286" y="591"/>
      <point x="313" y="581" type="qcurve"/>
      <point x="313" y="591" type="line"/>
      <point x="434" y="591" type="line"/>
      <point x="434" y="-121" type="line"/>
      <point x="313" y="-121" type="line"/>
      <point x="313" y="10" type="line"/>
      <point x="299" y="5"/>
      <point x="269" y="0"/>
      <point x="253" y="0" type="qcurve" smooth="yes"/>
      <point x="215" y="0"/>
      <point x="149" y="28"/>
      <point x="99" y="78"/>
      <point x="71" y="144"/>
      <point x="71" y="182" type="qcurve" smooth="yes"/>
    </contour>
    <contour>
      <point x="192" y="182" type="line" smooth="yes"/>
      <point x="192" y="156"/>
      <point x="227" y="121"/>
      <point x="253" y="121" type="qcurve" smooth="yes"/>
      <point x="278" y="121"/>
      <point x="313" y="156"/>
      <point x="313" y="182" type="qcurve" smooth="yes"/>
      <point x="313" y="410" type="line" smooth="yes"/>
      <point x="313" y="435"/>
      <point x="278" y="470"/>
      <point x="253" y="470" type="qcurve" smooth="yes"/>
      <point x="227" y="470"/>
      <point x="192" y="435"/>
      <point x="192" y="410" type="qcurve" smooth="yes"/>
    </contour>
  </outline>
</glyph>
<glyph name="s" format="1">
  <advance width="534"/>
  <unicode hex="0073"/>
  <outline>
    <contour>
      <point x="267" y="381" type="qcurve" smooth="yes"/>
      <point x="307" y="381"/>
      <point x="379" y="350"/>
      <point x="432" y="297"/>
      <point x="463" y="225"/>
      <point x="463" y="185" type="qcurve" smooth="yes"/>
      <point x="463" y="144"/>
      <point x="432" y="73"/>
      <point x="379" y="20"/>
      <point x="307" y="-11"/>
      <point x="267" y="-11" type="qcurve" smooth="yes"/>
      <point x="226" y="-11"/>
      <point x="155" y="20"/>
      <point x="102" y="73"/>
      <point x="71" y="144"/>
      <point x="71" y="185" type="qcurve"/>
      <point x="192" y="185" type="line"/>
      <point x="192" y="154"/>
      <point x="236" y="110"/>
      <point x="267" y="110" type="qcurve" smooth="yes"/>
      <point x="298" y="110"/>
      <point x="342" y="154"/>
      <point x="342" y="185" type="qcurve" smooth="yes"/>
      <point x="342" y="216"/>
      <point x="298" y="260"/>
      <point x="267" y="260" type="qcurve" smooth="yes"/>
      <point x="232" y="260"/>
      <point x="169" y="287"/>
      <point x="123" y="333"/>
      <point x="96" y="396"/>
      <point x="96" y="431" type="qcurve" smooth="yes"/>
      <point x="96" y="466"/>
      <point x="123" y="528"/>
      <point x="169" y="575"/>
      <point x="232" y="602"/>
      <point x="267" y="602" type="qcurve" smooth="yes"/>
      <point x="303" y="602"/>
      <point x="365" y="575"/>
      <point x="411" y="528"/>
      <point x="438" y="466"/>
      <point x="438" y="431" type="qcurve"/>
      <point x="317" y="431" type="line"/>
      <point x="317" y="451"/>
      <point x="288" y="481"/>
      <point x="267" y="481" type="qcurve" smooth="yes"/>
      <point x="247" y="481"/>
      <point x="217" y="451"/>
      <point x="217" y="431" type="qcurve" smooth="yes"/>
      <point x="217" y="410"/>
      <point x="247" y="381"/>
    </contour>
  </outline>
</glyph>
<glyph name="t" format="1">
  <advance width="456"/>
  <unicode hex="0074"/>
  <outline>
    <contour>
      <point x="71" y="712" type="line"/>
      <point x="192" y="712" type="line"/>
      <point x="192" y="591" type="line"/>
      <point x="314" y="591" type="line"/>
      <point x="314" y="470" type="line"/>
      <point x="192" y="470" type="line"/>
      <point x="192" y="171" type="line" smooth="yes"/>
      <point x="192" y="146"/>
      <point x="227" y="110"/>
      <point x="253" y="110" type="qcurve" smooth="yes"/>
      <point x="266" y="110"/>
      <point x="289" y="121"/>
      <point x="297" y="129" type="qcurve"/>
      <point x="385" y="46" type="line"/>
      <point x="360" y="20"/>
      <point x="292" y="-11"/>
      <point x="253" y="-11" type="qcurve" smooth="yes"/>
      <point x="215" y="-11"/>
      <point x="149" y="18"/>
      <point x="99" y="67"/>
      <point x="71" y="133"/>
      <point x="71" y="171" type="qcurve" smooth="yes"/>
    </contour>
  </outline>
</glyph>
<glyph name="u" format="1">
  <advance width="505"/>
  <unicode hex="0075"/>
  <outline>
    <contour>
      <point x="253" y="0" type="qcurve" smooth="yes"/>
      <point x="215" y="0"/>
      <point x="149" y="28"/>
      <point x="99" y="78"/>
      <point x="71" y="144"/>
      <point x="71" y="182" type="qcurve" smooth="yes"/>
      <point x="71" y="591" type="line"/>
      <point x="192" y="591" type="line"/>
      <point x="192" y="182" type="line" smooth="yes"/>
      <point x="192" y="156"/>
      <point x="227" y="121"/>
      <point x="253" y="121" type="qcurve" smooth="yes"/>
      <point x="278" y="121"/>
      <point x="313" y="156"/>
      <point x="313" y="182" type="qcurve" smooth="yes"/>
      <point x="313" y="591" type="line"/>
      <point x="434" y="591" type="line"/>
      <point x="434" y="0" type="line"/>
      <point x="313" y="0" type="line"/>
      <point x="313" y="10" type="line"/>
      <point x="299" y="5"/>
      <point x="269" y="0"/>
    </contour>
  </outline>
</glyph>
<glyph name="v" format="1">
  <advance width="505"/>
  <unicode hex="0076"/>
  <outline>
    <contour>
      <point x="434" y="591" type="line"/>
      <point x="314" y="0" type="line"/>
      <point x="192" y="0" type="line"/>
      <point x="71" y="591" type="line"/>
      <point x="192" y="591" type="line"/>
      <point x="253" y="296" type="line"/>
      <point x="314" y="591" type="line"/>
    </contour>
  </outline>
</glyph>
<glyph name="w" format="1">
  <advance width="748"/>
  <unicode hex="0077"/>
  <outline>
    <contour>
      <point x="677" y="591" type="line"/>
      <point x="556" y="0" type="line"/>
      <point x="434" y="0" type="line"/>
      <point x="374" y="296" type="line"/>
      <point x="314" y="0" type="line"/>
      <point x="192" y="0" type="line"/>
      <point x="71" y="591" type="line"/>
      <point x="192" y="591" type="line"/>
      <point x="253" y="296" type="line"/>
      <point x="314" y="591" type="line"/>
      <point x="434" y="591" type="line"/>
      <point x="495" y="296" type="line"/>
      <point x="556" y="591" type="line"/>
    </contour>
  </outline>
</glyph>
<glyph name="x" format="1">
  <advance width="505"/>
  <unicode hex="0078"/>
  <outline>
    <contour>
      <point x="188" y="296" type="line"/>
      <point x="71" y="591" type="line"/>
      <point x="201" y="591" type="line"/>
      <point x="253" y="461" type="line"/>
      <point x="304" y="591" type="line"/>
      <point x="434" y="591" type="line"/>
      <point x="318" y="296" type="line"/>
      <point x="434" y="0" type="line"/>
      <point x="304" y="0" type="line"/>
      <point x="253" y="130" type="line"/>
      <point x="201" y="0" type="line"/>
      <point x="71" y="0" type="line"/>
    </contour>
  </outline>
</glyph>
<glyph name="z" format="1">
  <advance width="505"/>
  <unicode hex="007A"/>
  <outline>
    <contour>
      <point x="434" y="470" type="line"/>
      <point x="214" y="121" type="line"/>
      <point x="434" y="121" type="line"/>
      <point x="434" y="0" type="line"/>
      <point x="71" y="0" type="line"/>
      <point x="71" y="121" type="line"/>
      <point x="291" y="470" type="line"/>
      <point x="71" y="470" type="line"/>
      <point x="71" y="591" type="line"/>
      <point x="434" y="591" type="line"/>
    </contour>
  </outline>
</glyph>
<glyph name="braceleft" format="1">
  <advance width="370"/>
  <unicode hex="007B"/>
  <outline>
    <contour>
      <point x="159" y="326" type="qcurve"/>
      <point x="163" y="323"/>
      <point x="188" y="301"/>
      <point x="213" y="260"/>
      <point x="233" y="200"/>
      <point x="233" y="158" type="qcurve" smooth="yes"/>
      <point x="233" y="-43" type="line" smooth="yes"/>
      <point x="233" y="-68"/>
      <point x="254" y="-91" type="qcurve" smooth="yes"/>
      <point x="264" y="-99"/>
      <point x="287" y="-110"/>
      <point x="300" y="-110" type="qcurve"/>
      <point x="300" y="-155" type="line"/>
      <point x="300" y="-202" type="line"/>
      <point x="268" y="-202"/>
      <point x="212" y="-176"/>
      <point x="190" y="-155" type="qcurve" smooth="yes"/>
      <point x="167" y="-133"/>
      <point x="143" y="-75"/>
      <point x="143" y="-43" type="qcurve" smooth="yes"/>
      <point x="143" y="142" type="line" smooth="yes"/>
      <point x="143" y="198"/>
      <point x="107" y="273"/>
      <point x="70" y="289" type="qcurve"/>
      <point x="70" y="363" type="line"/>
      <point x="107" y="379"/>
      <point x="143" y="454"/>
      <point x="143" y="510" type="qcurve" smooth="yes"/>
      <point x="143" y="695" type="line" smooth="yes"/>
      <point x="143" y="727"/>
      <point x="167" y="785"/>
      <point x="190" y="807" type="qcurve" smooth="yes"/>
      <point x="212" y="828"/>
      <point x="268" y="854"/>
      <point x="300" y="854" type="qcurve"/>
      <point x="300" y="807" type="line"/>
      <point x="300" y="762" type="line"/>
      <point x="287" y="762"/>
      <point x="264" y="751"/>
      <point x="254" y="743" type="qcurve" smooth="yes"/>
      <point x="233" y="720"/>
      <point x="233" y="695" type="qcurve" smooth="yes"/>
      <point x="233" y="494" type="line" smooth="yes"/>
      <point x="233" y="452"/>
      <point x="213" y="392"/>
      <point x="188" y="351"/>
      <point x="163" y="329"/>
    </contour>
  </outline>
</glyph>
<glyph name="bar" format="1">
  <advance width="267"/>
  <unicode hex="007C"/>
  <outline>
    <contour>
      <point x="90" y="750" type="line"/>
      <point x="177" y="750" type="line"/>
      <point x="177" y="-250" type="line"/>
      <point x="90" y="-250" type="line"/>
    </contour>
  </outline>
</glyph>
<glyph name="braceright" format="1">
  <advance width="370"/>
  <unicode hex="007D"/>
  <outline>
    <contour>
      <point x="211" y="326" type="qcurve"/>
      <point x="206" y="329"/>
      <point x="182" y="351"/>
      <point x="157" y="392"/>
      <point x="137" y="452"/>
      <point x="137" y="494" type="qcurve" smooth="yes"/>
      <point x="137" y="695" type="line" smooth="yes"/>
      <point x="137" y="720"/>
      <point x="116" y="743" type="qcurve" smooth="yes"/>
      <point x="106" y="751"/>
      <point x="83" y="762"/>
      <point x="70" y="762" type="qcurve"/>
      <point x="70" y="807" type="line"/>
      <point x="70" y="854" type="line"/>
      <point x="102" y="854"/>
      <point x="158" y="828"/>
      <point x="180" y="807" type="qcurve" smooth="yes"/>
      <point x="203" y="785"/>
      <point x="227" y="727"/>
      <point x="227" y="695" type="qcurve" smooth="yes"/>
      <point x="227" y="510" type="line" smooth="yes"/>
      <point x="227" y="454"/>
      <point x="263" y="379"/>
      <point x="300" y="363" type="qcurve"/>
      <point x="300" y="289" type="line"/>
      <point x="263" y="273"/>
      <point x="227" y="198"/>
      <point x="227" y="142" type="qcurve" smooth="yes"/>
      <point x="227" y="-43" type="line" smooth="yes"/>
      <point x="227" y="-75"/>
      <point x="203" y="-133"/>
      <point x="180" y="-155" type="qcurve" smooth="yes"/>
      <point x="158" y="-176"/>
      <point x="102" y="-202"/>
      <point x="70" y="-202" type="qcurve"/>
      <point x="70" y="-155" type="line"/>
      <point x="70" y="-110" type="line"/>
      <point x="83" y="-110"/>
      <point x="106" y="-99"/>
      <point x="116" y="-91" type="qcurve" smooth="yes"/>
      <point x="137" y="-68"/>
      <point x="137" y="-43" type="qcurve" smooth="yes"/>
      <point x="137" y="158" type="line" smooth="yes"/>
      <point x="137" y="200"/>
      <point x="157" y="260"/>
      <point x="182" y="301"/>
      <point x="206" y="323"/>
    </contour>
  </outline>
</glyph>
<glyph name="asciitilde" format="1">
  <advance width="604"/>
  <unicode hex="007E"/>
  <outline>
    <contour>
      <point x="71" y="239" type="line"/>
      <point x="79" y="255"/>
      <point x="102" y="286"/>
      <point x="132" y="311"/>
      <point x="171" y="326"/>
      <point x="196" y="326" type="qcurve" smooth="yes"/>
      <point x="222" y="326"/>
      <point x="278" y="307"/>
      <point x="307" y="293" type="qcurve" smooth="yes"/>
      <point x="334" y="280"/>
      <point x="389" y="257"/>
      <point x="409" y="257" type="qcurve" smooth="yes"/>
      <point x="424" y="257"/>
      <point x="449" y="270"/>
      <point x="470" y="290"/>
      <point x="488" y="316"/>
      <point x="497" y="329" type="qcurve"/>
      <point x="533" y="266" type="line"/>
      <point x="525" y="250"/>
      <point x="502" y="219"/>
      <point x="472" y="194"/>
      <point x="433" y="179"/>
      <point x="408" y="179" type="qcurve" smooth="yes"/>
      <point x="382" y="179"/>
      <point x="326" y="199"/>
      <point x="297" y="212" type="qcurve" smooth="yes"/>
      <point x="269" y="224"/>
      <point x="215" y="248"/>
      <point x="195" y="248" type="qcurve" smooth="yes"/>
      <point x="180" y="248"/>
      <point x="155" y="235"/>
      <point x="134" y="215"/>
      <point x="116" y="190"/>
      <point x="107" y="177" type="qcurve"/>
    </contour>
  </outline>
</glyph>
<glyph name="sterling" format="1">
  <advance width="584"/>
  <unicode hex="00A3"/>
  <outline>
    <contour>
      <point x="72" y="366" type="line"/>
      <point x="127" y="366" type="line"/>
      <point x="107" y="408"/>
      <point x="92" y="479"/>
      <point x="92" y="516" type="qcurve" smooth="yes"/>
      <point x="92" y="563"/>
      <point x="120" y="638"/>
      <point x="170" y="690"/>
      <point x="238" y="718"/>
      <point x="278" y="718" type="qcurve" smooth="yes"/>
      <point x="328" y="718"/>
      <point x="403" y="688"/>
      <point x="452" y="633"/>
      <point x="476" y="558"/>
      <point x="476" y="513" type="qcurve"/>
      <point x="374" y="513" type="line"/>
      <point x="372" y="567"/>
      <point x="325" y="622"/>
      <point x="285" y="622" type="qcurve" smooth="yes"/>
      <point x="244" y="622"/>
      <point x="194" y="565"/>
      <point x="194" y="514" type="qcurve" smooth="yes"/>
      <point x="194" y="476"/>
      <point x="215" y="396"/>
      <point x="229" y="366" type="qcurve"/>
      <point x="390" y="366" type="line"/>
      <point x="390" y="300" type="line"/>
      <point x="254" y="300" type="line"/>
      <point x="261" y="277"/>
      <point x="272" y="232"/>
      <point x="272" y="212" type="qcurve" smooth="yes"/>
      <point x="272" y="184"/>
      <point x="255" y="131"/>
      <point x="241" y="104" type="qcurve"/>
      <point x="251" y="103"/>
      <point x="280" y="98"/>
      <point x="311" y="94"/>
      <point x="341" y="90"/>
      <point x="353" y="90" type="qcurve" smooth="yes"/>
      <point x="375" y="90"/>
      <point x="427" y="105"/>
      <point x="450" y="123" type="qcurve"/>
      <point x="513" y="44" type="line"/>
      <point x="478" y="15"/>
      <point x="401" y="-6"/>
      <point x="368" y="-6" type="qcurve" smooth="yes"/>
      <point x="354" y="-6"/>
      <point x="302" y="0"/>
      <point x="245" y="8"/>
      <point x="190" y="14"/>
      <point x="173" y="14" type="qcurve" smooth="yes"/>
      <point x="153" y="14"/>
      <point x="108" y="5"/>
      <point x="85" y="-6" type="qcurve"/>
      <point x="85" y="90" type="line"/>
      <point x="102" y="100"/>
      <point x="139" y="109"/>
      <point x="158" y="110" type="qcurve"/>
      <point x="166" y="130"/>
      <point x="176" y="176"/>
      <point x="176" y="195" type="qcurve" smooth="yes"/>
      <point x="176" y="215"/>
      <point x="161" y="271"/>
      <point x="152" y="300" type="qcurve"/>
      <point x="72" y="300" type="line"/>
    </contour>
  </outline>
</glyph>
<glyph name="dieresis" format="1">
  <advance width="4"/>
  <unicode hex="00A8"/>
  <outline>
    <contour>
      <point x="97" y="755" type="line"/>
      <point x="97" y="826" type="line"/>
      <point x="168" y="826" type="line"/>
      <point x="168" y="755" type="line"/>
    </contour>
    <contour>
      <point x="239" y="755" type="line"/>
      <point x="239" y="826" type="line"/>
      <point x="310" y="826" type="line"/>
      <point x="310" y="755" type="line"/>
    </contour>
  </outline>
</glyph>
<glyph name="copyright" format="1">
  <advance width="518"/>
  <unicode hex="00A9"/>
  <outline>
    <contour>
      <point x="392" y="656" type="qcurve" smooth="yes"/>
      <point x="418" y="630"/>
      <point x="447" y="562"/>
      <point x="447" y="523" type="qcurve" smooth="yes"/>
      <point x="447" y="485"/>
      <point x="418" y="416"/>
      <point x="392" y="390" type="qcurve" smooth="yes"/>
      <point x="366" y="364"/>
      <point x="298" y="335"/>
      <point x="259" y="335" type="qcurve" smooth="yes"/>
      <point x="220" y="335"/>
      <point x="152" y="364"/>
      <point x="126" y="390" type="qcurve" smooth="yes"/>
      <point x="100" y="416"/>
      <point x="71" y="485"/>
      <point x="71" y="523" type="qcurve" smooth="yes"/>
      <point x="71" y="562"/>
      <point x="100" y="630"/>
      <point x="126" y="656" type="qcurve" smooth="yes"/>
      <point x="152" y="682"/>
      <point x="220" y="711"/>
      <point x="259" y="711" type="qcurve" smooth="yes"/>
      <point x="298" y="711"/>
      <point x="366" y="682"/>
    </contour>
    <contour>
      <point x="367" y="416" type="qcurve" smooth="yes"/>
      <point x="387" y="437"/>
      <point x="411" y="491"/>
      <point x="411" y="523" type="qcurve" smooth="yes"/>
      <point x="411" y="555"/>
      <point x="387" y="610"/>
      <point x="367" y="631" type="qcurve" smooth="yes"/>
      <point x="346" y="651"/>
      <point x="291" y="675"/>
      <point x="259" y="675" type="qcurve" smooth="yes"/>
      <point x="227" y="675"/>
      <point x="172" y="651"/>
      <point x="151" y="631" type="qcurve" smooth="yes"/>
      <point x="131" y="610"/>
      <point x="107" y="555"/>
      <point x="107" y="523" type="qcurve" smooth="yes"/>
      <point x="107" y="491"/>
      <point x="131" y="437"/>
      <point x="151" y="416" type="qcurve" smooth="yes"/>
      <point x="172" y="395"/>
      <point x="227" y="371"/>
      <point x="259" y="371" type="qcurve" smooth="yes"/>
      <point x="291" y="371"/>
      <point x="346" y="395"/>
    </contour>
    <contour>
      <point x="257" y="433" type="qcurve" smooth="yes"/>
      <point x="234" y="433"/>
      <point x="200" y="467"/>
      <point x="200" y="490" type="qcurve" smooth="yes"/>
      <point x="200" y="555" type="line" smooth="yes"/>
      <point x="200" y="578"/>
      <point x="234" y="612"/>
      <point x="257" y="612" type="qcurve" smooth="yes"/>
      <point x="281" y="612"/>
      <point x="314" y="578"/>
      <point x="314" y="555" type="qcurve"/>
      <point x="286" y="555" type="line"/>
      <point x="286" y="566"/>
      <point x="269" y="583"/>
      <point x="257" y="583" type="qcurve" smooth="yes"/>
      <point x="246" y="583"/>
      <point x="229" y="566"/>
      <point x="229" y="555" type="qcurve" smooth="yes"/>
      <point x="229" y="490" type="line" smooth="yes"/>
      <point x="229" y="479"/>
      <point x="246" y="462"/>
      <point x="257" y="462" type="qcurve" smooth="yes"/>
      <point x="269" y="462"/>
      <point x="286" y="479"/>
      <point x="286" y="490" type="qcurve"/>
      <point x="314" y="490" type="line"/>
      <point x="314" y="467"/>
      <point x="281" y="433"/>
    </contour>
  </outline>
</glyph>
<glyph name="guillemotleft" format="1">
  <advance width="614"/>
  <unicode hex="00AB"/>
  <outline>
    <contour>
      <point x="153" y="310" type="line"/>
      <point x="278" y="185" type="line"/>
      <point x="278" y="60" type="line"/>
      <point x="28" y="310" type="line"/>
      <point x="278" y="560" type="line"/>
      <point x="278" y="435" type="line"/>
    </contour>
    <contour>
      <point x="419" y="310" type="line"/>
      <point x="544" y="185" type="line"/>
      <point x="544" y="60" type="line"/>
      <point x="294" y="310" type="line"/>
      <point x="544" y="560" type="line"/>
      <point x="544" y="435" type="line"/>
    </contour>
  </outline>
</glyph>
<glyph name="registered" format="1">
  <advance width="518"/>
  <unicode hex="00AE"/>
  <outline>
    <contour>
      <point x="392" y="656" type="qcurve" smooth="yes"/>
      <point x="418" y="630"/>
      <point x="447" y="562"/>
      <point x="447" y="523" type="qcurve" smooth="yes"/>
      <point x="447" y="485"/>
      <point x="418" y="416"/>
      <point x="392" y="390" type="qcurve" smooth="yes"/>
      <point x="366" y="364"/>
      <point x="298" y="335"/>
      <point x="259" y="335" type="qcurve" smooth="yes"/>
      <point x="220" y="335"/>
      <point x="152" y="364"/>
      <point x="126" y="390" type="qcurve" smooth="yes"/>
      <point x="100" y="416"/>
      <point x="71" y="485"/>
      <point x="71" y="523" type="qcurve" smooth="yes"/>
      <point x="71" y="562"/>
      <point x="100" y="630"/>
      <point x="126" y="656" type="qcurve" smooth="yes"/>
      <point x="152" y="682"/>
      <point x="220" y="711"/>
      <point x="259" y="711" type="qcurve" smooth="yes"/>
      <point x="298" y="711"/>
      <point x="366" y="682"/>
    </contour>
    <contour>
      <point x="367" y="416" type="qcurve" smooth="yes"/>
      <point x="387" y="437"/>
      <point x="411" y="491"/>
      <point x="411" y="523" type="qcurve" smooth="yes"/>
      <point x="411" y="555"/>
      <point x="387" y="610"/>
      <point x="367" y="631" type="qcurve" smooth="yes"/>
      <point x="346" y="651"/>
      <point x="291" y="675"/>
      <point x="259" y="675" type="qcurve" smooth="yes"/>
      <point x="227" y="675"/>
      <point x="172" y="651"/>
      <point x="151" y="631" type="qcurve" smooth="yes"/>
      <point x="131" y="610"/>
      <point x="107" y="555"/>
      <point x="107" y="523" type="qcurve" smooth="yes"/>
      <point x="107" y="491"/>
      <point x="131" y="437"/>
      <point x="151" y="416" type="qcurve" smooth="yes"/>
      <point x="172" y="395"/>
      <point x="227" y="371"/>
      <point x="259" y="371" type="qcurve" smooth="yes"/>
      <point x="291" y="371"/>
      <point x="346" y="395"/>
    </contour>
    <contour>
      <point x="263" y="527" type="line" smooth="yes"/>
      <point x="274" y="527"/>
      <point x="290" y="543"/>
      <point x="290" y="554" type="qcurve" smooth="yes"/>
      <point x="290" y="565"/>
      <point x="274" y="581"/>
      <point x="263" y="581" type="qcurve" smooth="yes"/>
      <point x="231" y="581" type="line"/>
      <point x="231" y="527" type="line"/>
    </contour>
    <contour>
      <point x="202" y="610" type="line"/>
      <point x="263" y="610" type="line" smooth="yes"/>
      <point x="286" y="610"/>
      <point x="319" y="577"/>
      <point x="319" y="554" type="qcurve" smooth="yes"/>
      <point x="319" y="538"/>
      <point x="304" y="513"/>
      <point x="291" y="506" type="qcurve"/>
      <point x="319" y="435" type="line"/>
      <point x="288" y="435" type="line"/>
      <point x="263" y="498" type="line"/>
      <point x="231" y="498" type="line"/>
      <point x="231" y="435" type="line"/>
      <point x="202" y="435" type="line"/>
    </contour>
  </outline>
</glyph>
<glyph name="plusminus" format="1">
  <advance width="624"/>
  <unicode hex="00B1"/>
  <outline>
    <contour>
      <point x="363" y="363" type="line"/>
      <point x="363" y="172" type="line"/>
      <point x="263" y="172" type="line"/>
      <point x="263" y="363" type="line"/>
      <point x="71" y="363" type="line"/>
      <point x="71" y="463" type="line"/>
      <point x="262" y="463" type="line"/>
      <point x="262" y="654" type="line"/>
      <point x="362" y="654" type="line"/>
      <point x="362" y="463" type="line"/>
      <point x="553" y="463" type="line"/>
      <point x="553" y="363" type="line"/>
    </contour>
    <contour>
      <point x="72" y="0" type="line"/>
      <point x="72" y="100" type="line"/>
      <point x="552" y="100" type="line"/>
      <point x="552" y="0" type="line"/>
    </contour>
  </outline>
</glyph>
<glyph name="acute" format="1">
  <advance width="805"/>
  <unicode hex="00B4"/>
  <outline>
    <contour>
      <point x="224" y="755" type="line"/>
      <point x="189" y="790" type="line"/>
      <point x="284" y="886" type="line"/>
      <point x="335" y="836" type="line"/>
    </contour>
  </outline>
</glyph>
<glyph name="cedilla" format="1">
  <advance width="5"/>
  <unicode hex="00B8"/>
  <outline>
    <contour>
      <point x="48" y="-90" type="line"/>
      <point x="62" y="0" type="line"/>
      <point x="95" y="0" type="line"/>
      <point x="95" y="-90" type="line"/>
    </contour>
  </outline>
</glyph>
<glyph name="ordmasculine" format="1">
  <advance width="325"/>
  <unicode hex="00BA"/>
  <outline>
    <contour>
      <point x="15" y="562" type="qcurve" smooth="yes"/>
      <point x="15" y="585"/>
      <point x="18" y="618"/>
      <point x="25" y="643"/>
      <point x="37" y="663"/>
      <point x="47" y="674" type="qcurve" smooth="yes"/>
      <point x="67" y="697"/>
      <point x="128" y="718"/>
      <point x="163" y="718" type="qcurve" smooth="yes"/>
      <point x="198" y="718"/>
      <point x="258" y="697"/>
      <point x="278" y="674" type="qcurve" smooth="yes"/>
      <point x="288" y="663"/>
      <point x="300" y="643"/>
      <point x="307" y="618"/>
      <point x="310" y="585"/>
      <point x="310" y="562" type="qcurve" smooth="yes"/>
      <point x="310" y="539"/>
      <point x="307" y="506"/>
      <point x="300" y="481"/>
      <point x="288" y="460"/>
      <point x="278" y="450" type="qcurve" smooth="yes"/>
      <point x="258" y="427"/>
      <point x="197" y="406"/>
      <point x="162" y="406" type="qcurve" smooth="yes"/>
      <point x="127" y="406"/>
      <point x="67" y="427"/>
      <point x="47" y="450" type="qcurve" smooth="yes"/>
      <point x="37" y="460"/>
      <point x="25" y="481"/>
      <point x="18" y="506"/>
      <point x="15" y="539"/>
    </contour>
    <contour>
      <point x="93" y="562" type="qcurve" smooth="yes"/>
      <point x="93" y="535"/>
      <point x="97" y="509"/>
      <point x="108" y="496" type="qcurve" smooth="yes"/>
      <point x="127" y="472"/>
      <point x="162" y="472" type="qcurve" smooth="yes"/>
      <point x="198" y="472"/>
      <point x="217" y="496" type="qcurve" smooth="yes"/>
      <point x="228" y="509"/>
      <point x="232" y="535"/>
      <point x="232" y="562" type="qcurve" smooth="yes"/>
      <point x="232" y="589"/>
      <point x="228" y="615"/>
      <point x="217" y="628" type="qcurve" smooth="yes"/>
      <point x="198" y="652"/>
      <point x="163" y="652" type="qcurve" smooth="yes"/>
      <point x="127" y="652"/>
      <point x="108" y="628" type="qcurve" smooth="yes"/>
      <point x="97" y="615"/>
      <point x="93" y="589"/>
    </contour>
  </outline>
</glyph>
<glyph name="guillemotright" format="1">
  <advance width="614"/>
  <unicode hex="00BB"/>
  <outline>
    <contour>
      <point x="336" y="560" type="line"/>
      <point x="586" y="310" type="line"/>
      <point x="336" y="60" type="line"/>
      <point x="336" y="185" type="line"/>
      <point x="461" y="310" type="line"/>
      <point x="336" y="435" type="line"/>
    </contour>
    <contour>
      <point x="70" y="560" type="line"/>
      <point x="320" y="310" type="line"/>
      <point x="70" y="60" type="line"/>
      <point x="70" y="185" type="line"/>
      <point x="195" y="310" type="line"/>
      <point x="70" y="435" type="line"/>
    </contour>
  </outline>
</glyph>
<glyph name="questiondown" format="1">
  <advance width="463"/>
  <unicode hex="00BF"/>
  <outline>
    <contour>
      <point x="192" y="331" type="line"/>
      <point x="294" y="331" type="line"/>
      <point x="294" y="266" type="line" smooth="yes"/>
      <point x="294" y="237"/>
      <point x="285" y="193"/>
      <point x="268" y="170" type="qcurve" smooth="yes"/>
      <point x="179" y="46" type="line" smooth="yes"/>
      <point x="154" y="12"/>
      <point x="154" y="-20" type="qcurve" smooth="yes"/>
      <point x="154" y="-41"/>
      <point x="170" y="-74"/>
      <point x="195" y="-97"/>
      <point x="225" y="-109"/>
      <point x="240" y="-109" type="qcurve" smooth="yes"/>
      <point x="278" y="-109"/>
      <point x="332" y="-60"/>
      <point x="332" y="0" type="qcurve"/>
      <point x="434" y="0" type="line"/>
      <point x="434" y="-20" type="line" smooth="yes"/>
      <point x="434" y="-60"/>
      <point x="403" y="-130"/>
      <point x="351" y="-181"/>
      <point x="283" y="-211"/>
      <point x="245" y="-211" type="qcurve" smooth="yes"/>
      <point x="208" y="-211"/>
      <point x="138" y="-184"/>
      <point x="84" y="-134"/>
      <point x="52" y="-63"/>
      <point x="52" y="-19" type="qcurve" smooth="yes"/>
      <point x="52" y="13"/>
      <point x="69" y="65"/>
      <point x="84" y="86" type="qcurve" smooth="yes"/>
      <point x="175" y="211" type="line" smooth="yes"/>
      <point x="186" y="225"/>
      <point x="192" y="254"/>
      <point x="192" y="274" type="qcurve" smooth="yes"/>
    </contour>
    <contour>
      <point x="192" y="507" type="line"/>
      <point x="294" y="507" type="line"/>
      <point x="294" y="405" type="line"/>
      <point x="192" y="405" type="line"/>
    </contour>
  </outline>
</glyph>
<glyph name="Agrave" format="1">
  <advance width="684"/>
  <unicode hex="00C0"/>
  <outline>
    <contour>
      <point x="402" y="712" type="line"/>
      <point x="614" y="0" type="line"/>
      <point x="490" y="0" type="line"/>
      <point x="451" y="131" type="line"/>
      <point x="235" y="131" type="line"/>
      <point x="196" y="0" type="line"/>
      <point x="72" y="0" type="line"/>
      <point x="283" y="712" type="line"/>
    </contour>
    <contour>
      <point x="416" y="249" type="line"/>
      <point x="343" y="495" type="line"/>
      <point x="270" y="249" type="line"/>
    </contour>
    <contour>
      <point x="311" y="886" type="line"/>
      <point x="407" y="790" type="line"/>
      <point x="372" y="755" type="line"/>
      <point x="261" y="836" type="line"/>
    </contour>
  </outline>
</glyph>
<glyph name="Aacute" format="1">
  <advance width="684"/>
  <unicode hex="00C1"/>
  <outline>
    <contour>
      <point x="401" y="712" type="line"/>
      <point x="613" y="0" type="line"/>
      <point x="489" y="0" type="line"/>
      <point x="450" y="131" type="line"/>
      <point x="234" y="131" type="line"/>
      <point x="195" y="0" type="line"/>
      <point x="71" y="0" type="line"/>
      <point x="282" y="712" type="line"/>
    </contour>
    <contour>
      <point x="415" y="249" type="line"/>
      <point x="342" y="495" type="line"/>
      <point x="269" y="249" type="line"/>
    </contour>
    <contour>
      <point x="299" y="755" type="line"/>
      <point x="264" y="790" type="line"/>
      <point x="359" y="886" type="line"/>
      <point x="410" y="836" type="line"/>
    </contour>
  </outline>
</glyph>
<glyph name="Acircumflex" format="1">
  <advance width="684"/>
  <unicode hex="00C2"/>
  <outline>
    <contour>
      <point x="402" y="712" type="line"/>
      <point x="614" y="0" type="line"/>
      <point x="490" y="0" type="line"/>
      <point x="451" y="131" type="line"/>
      <point x="235" y="131" type="line"/>
      <point x="196" y="0" type="line"/>
      <point x="72" y="0" type="line"/>
      <point x="283" y="712" type="line"/>
    </contour>
    <contour>
      <point x="416" y="249" type="line"/>
      <point x="343" y="495" type="line"/>
      <point x="270" y="249" type="line"/>
    </contour>
    <contour>
      <point x="335" y="831" type="line"/>
      <point x="244" y="741" type="line"/>
      <point x="214" y="771" type="line"/>
      <point x="335" y="892" type="line"/>
      <point x="456" y="771" type="line"/>
      <point x="426" y="741" type="line"/>
    </contour>
  </outline>
</glyph>
<glyph name="Adieresis" format="1">
  <advance width="684"/>
  <unicode hex="00C4"/>
  <outline>
    <contour>
      <point x="401" y="712" type="line"/>
      <point x="613" y="0" type="line"/>
      <point x="489" y="0" type="line"/>
      <point x="450" y="131" type="line"/>
      <point x="234" y="131" type="line"/>
      <point x="195" y="0" type="line"/>
      <point x="71" y="0" type="line"/>
      <point x="282" y="712" type="line"/>
    </contour>
    <contour>
      <point x="415" y="249" type="line"/>
      <point x="342" y="495" type="line"/>
      <point x="269" y="249" type="line"/>
    </contour>
    <contour>
      <point x="229" y="755" type="line"/>
      <point x="229" y="826" type="line"/>
      <point x="300" y="826" type="line"/>
      <point x="300" y="755" type="line"/>
    </contour>
    <contour>
      <point x="371" y="755" type="line"/>
      <point x="371" y="826" type="line"/>
      <point x="442" y="826" type="line"/>
      <point x="442" y="755" type="line"/>
    </contour>
  </outline>
</glyph>
<glyph name="Aring" format="1">
  <advance width="684"/>
  <unicode hex="00C5"/>
  <outline>
    <contour>
      <point x="401" y="712" type="line"/>
      <point x="613" y="0" type="line"/>
      <point x="489" y="0" type="line"/>
      <point x="450" y="131" type="line"/>
      <point x="234" y="131" type="line"/>
      <point x="195" y="0" type="line"/>
      <point x="71" y="0" type="line"/>
      <point x="282" y="712" type="line"/>
    </contour>
    <contour>
      <point x="415" y="249" type="line"/>
      <point x="342" y="495" type="line"/>
      <point x="269" y="249" type="line"/>
    </contour>
  </outline>
</glyph>
<glyph name="AE" format="1">
  <advance width="882"/>
  <unicode hex="00C6"/>
  <outline>
    <contour>
      <point x="416" y="249" type="line"/>
      <point x="416" y="593" type="line"/>
      <point x="372" y="593" type="line"/>
      <point x="270" y="249" type="line"/>
    </contour>
    <contour>
      <point x="235" y="131" type="line"/>
      <point x="196" y="0" type="line"/>
      <point x="72" y="0" type="line"/>
      <point x="283" y="712" type="line"/>
      <point x="416" y="712" type="line"/>
      <point x="810" y="712" type="line"/>
      <point x="810" y="593" type="line"/>
      <point x="535" y="593" type="line"/>
      <point x="535" y="458" type="line"/>
      <point x="753" y="458" type="line"/>
      <point x="753" y="339" type="line"/>
      <point x="535" y="339" type="line"/>
      <point x="535" y="119" type="line"/>
      <point x="810" y="119" type="line"/>
      <point x="810" y="0" type="line"/>
      <point x="416" y="0" type="line"/>
      <point x="416" y="131" type="line"/>
    </contour>
  </outline>
</glyph>
<glyph name="Ccedilla" format="1">
  <advance width="617"/>
  <unicode hex="00C7"/>
  <outline>
    <contour>
      <point x="309" y="105" type="qcurve" smooth="yes"/>
      <point x="333" y="105"/>
      <point x="376" y="124"/>
      <point x="408" y="156"/>
      <point x="427" y="199"/>
      <point x="427" y="223" type="qcurve"/>
      <point x="546" y="223" type="line"/>
      <point x="546" y="177"/>
      <point x="514" y="96"/>
      <point x="457" y="33"/>
      <point x="380" y="-8"/>
      <point x="335" y="-13" type="qcurve"/>
      <point x="335" y="-135" type="line"/>
      <point x="264" y="-135" type="line"/>
      <point x="283" y="-13" type="line"/>
      <point x="238" y="-8"/>
      <point x="161" y="33"/>
      <point x="104" y="96"/>
      <point x="71" y="177"/>
      <point x="71" y="223" type="qcurve" smooth="yes"/>
      <point x="71" y="489" type="line" smooth="yes"/>
      <point x="71" y="538"/>
      <point x="109" y="625"/>
      <point x="173" y="689"/>
      <point x="260" y="727"/>
      <point x="309" y="727" type="qcurve" smooth="yes"/>
      <point x="358" y="727"/>
      <point x="444" y="689"/>
      <point x="509" y="625"/>
      <point x="546" y="538"/>
      <point x="546" y="489" type="qcurve"/>
      <point x="427" y="489" type="line"/>
      <point x="427" y="514"/>
      <point x="408" y="557"/>
      <point x="376" y="589"/>
      <point x="333" y="608"/>
      <point x="309" y="608" type="qcurve" smooth="yes"/>
      <point x="284" y="608"/>
      <point x="241" y="589"/>
      <point x="209" y="557"/>
      <point x="190" y="514"/>
      <point x="190" y="489" type="qcurve" smooth="yes"/>
      <point x="190" y="223" type="line" smooth="yes"/>
      <point x="190" y="199"/>
      <point x="209" y="156"/>
      <point x="241" y="124"/>
      <point x="284" y="105"/>
    </contour>
  </outline>
</glyph>
<glyph name="Eacute" format="1">
  <advance width="536"/>
  <unicode hex="00C9"/>
  <outline>
    <contour>
      <point x="71" y="712" type="line"/>
      <point x="465" y="712" type="line"/>
      <point x="465" y="593" type="line"/>
      <point x="190" y="593" type="line"/>
      <point x="190" y="458" type="line"/>
      <point x="408" y="458" type="line"/>
      <point x="408" y="339" type="line"/>
      <point x="190" y="339" type="line"/>
      <point x="190" y="119" type="line"/>
      <point x="465" y="119" type="line"/>
      <point x="465" y="0" type="line"/>
      <point x="71" y="0" type="line"/>
    </contour>
    <contour>
      <point x="224" y="755" type="line"/>
      <point x="189" y="790" type="line"/>
      <point x="284" y="886" type="line"/>
      <point x="335" y="836" type="line"/>
    </contour>
  </outline>
</glyph>
<glyph name="Ecircumflex" format="1">
  <advance width="536"/>
  <unicode hex="00CA"/>
  <outline>
    <contour>
      <point x="71" y="712" type="line"/>
      <point x="465" y="712" type="line"/>
      <point x="465" y="593" type="line"/>
      <point x="190" y="593" type="line"/>
      <point x="190" y="458" type="line"/>
      <point x="408" y="458" type="line"/>
      <point x="408" y="339" type="line"/>
      <point x="190" y="339" type="line"/>
      <point x="190" y="119" type="line"/>
      <point x="465" y="119" type="line"/>
      <point x="465" y="0" type="line"/>
      <point x="71" y="0" type="line"/>
    </contour>
    <contour>
      <point x="271" y="831" type="line"/>
      <point x="180" y="741" type="line"/>
      <point x="150" y="771" type="line"/>
      <point x="271" y="892" type="line"/>
      <point x="392" y="771" type="line"/>
      <point x="362" y="741" type="line"/>
    </contour>
  </outline>
</glyph>
<glyph name="Edieresis" format="1">
  <advance width="536"/>
  <unicode hex="00CB"/>
  <outline>
    <contour>
      <point x="71" y="712" type="line"/>
      <point x="465" y="712" type="line"/>
      <point x="465" y="593" type="line"/>
      <point x="190" y="593" type="line"/>
      <point x="190" y="458" type="line"/>
      <point x="408" y="458" type="line"/>
      <point x="408" y="339" type="line"/>
      <point x="190" y="339" type="line"/>
      <point x="190" y="119" type="line"/>
      <point x="465" y="119" type="line"/>
      <point x="465" y="0" type="line"/>
      <point x="71" y="0" type="line"/>
    </contour>
    <contour>
      <point x="162" y="755" type="line"/>
      <point x="162" y="826" type="line"/>
      <point x="233" y="826" type="line"/>
      <point x="233" y="755" type="line"/>
    </contour>
    <contour>
      <point x="304" y="755" type="line"/>
      <point x="304" y="826" type="line"/>
      <point x="375" y="826" type="line"/>
      <point x="375" y="755" type="line"/>
    </contour>
  </outline>
</glyph>
<glyph name="Igrave" format="1">
  <advance width="261"/>
  <unicode hex="00CC"/>
  <outline>
    <contour>
      <point x="71" y="0" type="line"/>
      <point x="71" y="712" type="line"/>
      <point x="190" y="712" type="line"/>
      <point x="190" y="0" type="line"/>
    </contour>
    <contour>
      <point x="105" y="886" type="line"/>
      <point x="201" y="790" type="line"/>
      <point x="166" y="755" type="line"/>
      <point x="55" y="836" type="line"/>
    </contour>
  </outline>
</glyph>
<glyph name="Iacute" format="1">
  <advance width="261"/>
  <unicode hex="00CD"/>
  <outline>
    <contour>
      <point x="71" y="0" type="line"/>
      <point x="71" y="712" type="line"/>
      <point x="190" y="712" type="line"/>
      <point x="190" y="0" type="line"/>
    </contour>
    <contour>
      <point x="100" y="755" type="line"/>
      <point x="65" y="790" type="line"/>
      <point x="160" y="886" type="line"/>
      <point x="211" y="836" type="line"/>
    </contour>
  </outline>
</glyph>
<glyph name="Icircumflex" format="1">
  <advance width="261"/>
  <unicode hex="00CE"/>
  <outline>
    <contour>
      <point x="71" y="0" type="line"/>
      <point x="71" y="712" type="line"/>
      <point x="190" y="712" type="line"/>
      <point x="190" y="0" type="line"/>
    </contour>
    <contour>
      <point x="131" y="831" type="line"/>
      <point x="40" y="741" type="line"/>
      <point x="10" y="771" type="line"/>
      <point x="131" y="892" type="line"/>
      <point x="252" y="771" type="line"/>
      <point x="222" y="741" type="line"/>
    </contour>
  </outline>
</glyph>
<glyph name="Idieresis" format="1">
  <advance width="261"/>
  <unicode hex="00CF"/>
  <outline>
    <contour>
      <point x="71" y="0" type="line"/>
      <point x="71" y="712" type="line"/>
      <point x="190" y="712" type="line"/>
      <point x="190" y="0" type="line"/>
    </contour>
    <contour>
      <point x="21" y="755" type="line"/>
      <point x="21" y="826" type="line"/>
      <point x="92" y="826" type="line"/>
      <point x="92" y="755" type="line"/>
    </contour>
    <contour>
      <point x="163" y="755" type="line"/>
      <point x="163" y="826" type="line"/>
      <point x="234" y="826" type="line"/>
      <point x="234" y="755" type="line"/>
    </contour>
  </outline>
</glyph>
<glyph name="Ntilde" format="1">
  <advance width="617"/>
  <unicode hex="00D1"/>
  <outline>
    <contour>
      <point x="190" y="532" type="line"/>
      <point x="190" y="0" type="line"/>
      <point x="71" y="0" type="line"/>
      <point x="71" y="712" type="line"/>
      <point x="190" y="712" type="line"/>
      <point x="427" y="442" type="line"/>
      <point x="427" y="712" type="line"/>
      <point x="546" y="712" type="line"/>
      <point x="546" y="0" type="line"/>
      <point x="427" y="0" type="line"/>
      <point x="427" y="262" type="line"/>
    </contour>
  </outline>
</glyph>
<glyph name="aacute" format="1">
  <advance width="534"/>
  <unicode hex="00E1"/>
  <outline>
    <contour>
      <point x="281" y="602" type="qcurve" smooth="yes"/>
      <point x="319" y="602"/>
      <point x="385" y="574"/>
      <point x="435" y="524"/>
      <point x="463" y="458"/>
      <point x="463" y="420" type="qcurve" smooth="yes"/>
      <point x="463" y="0" type="line"/>
      <point x="342" y="0" type="line"/>
      <point x="342" y="15" type="line"/>
      <point x="307" y="0"/>
      <point x="267" y="0" type="qcurve" smooth="yes"/>
      <point x="226" y="0"/>
      <point x="155" y="31"/>
      <point x="102" y="84"/>
      <point x="71" y="155"/>
      <point x="71" y="196" type="qcurve" smooth="yes"/>
      <point x="71" y="236"/>
      <point x="102" y="308"/>
      <point x="155" y="361"/>
      <point x="226" y="392"/>
      <point x="267" y="392" type="qcurve" smooth="yes"/>
      <point x="287" y="392"/>
      <point x="325" y="384"/>
      <point x="342" y="377" type="qcurve"/>
      <point x="342" y="420" type="line" smooth="yes"/>
      <point x="342" y="446"/>
      <point x="307" y="481"/>
      <point x="281" y="481" type="qcurve" smooth="yes"/>
      <point x="256" y="481"/>
      <point x="221" y="446"/>
      <point x="221" y="420" type="qcurve"/>
      <point x="100" y="420" type="line"/>
      <point x="100" y="458"/>
      <point x="128" y="524"/>
      <point x="178" y="574"/>
      <point x="243" y="602"/>
    </contour>
    <contour>
      <point x="267" y="121" type="qcurve" smooth="yes"/>
      <point x="298" y="121"/>
      <point x="342" y="165"/>
      <point x="342" y="196" type="qcurve" smooth="yes"/>
      <point x="342" y="227"/>
      <point x="298" y="271"/>
      <point x="267" y="271" type="qcurve" smooth="yes"/>
      <point x="236" y="271"/>
      <point x="192" y="227"/>
      <point x="192" y="196" type="qcurve" smooth="yes"/>
      <point x="192" y="165"/>
      <point x="236" y="121"/>
    </contour>
    <contour>
      <point x="255" y="640" type="line"/>
      <point x="220" y="675" type="line"/>
      <point x="315" y="771" type="line"/>
      <point x="366" y="721" type="line"/>
    </contour>
  </outline>
</glyph>
<glyph name="ae" format="1">
  <advance width="805"/>
  <unicode hex="00E6"/>
  <outline>
    <contour>
      <point x="463" y="264" type="line"/>
      <point x="463" y="171" type="line" smooth="yes"/>
      <point x="463" y="146"/>
      <point x="498" y="110"/>
      <point x="524" y="110" type="qcurve" smooth="yes"/>
      <point x="549" y="110"/>
      <point x="584" y="146"/>
      <point x="584" y="171" type="qcurve"/>
      <point x="705" y="171" type="line"/>
      <point x="705" y="133"/>
      <point x="677" y="67"/>
      <point x="627" y="18"/>
      <point x="561" y="-11"/>
      <point x="524" y="-11" type="qcurve" smooth="yes"/>
      <point x="488" y="-11"/>
      <point x="424" y="15"/>
      <point x="400" y="38" type="qcurve" smooth="yes"/>
      <point x="400" y="38"/>
      <point x="398" y="40" type="qcurve" smooth="yes"/>
      <point x="372" y="16"/>
      <point x="305" y="-11"/>
      <point x="267" y="-11" type="qcurve" smooth="yes"/>
      <point x="226" y="-11"/>
      <point x="155" y="20"/>
      <point x="102" y="73"/>
      <point x="71" y="144"/>
      <point x="71" y="185" type="qcurve" smooth="yes"/>
      <point x="71" y="225"/>
      <point x="102" y="297"/>
      <point x="155" y="350"/>
      <point x="226" y="381"/>
      <point x="267" y="381" type="qcurve" smooth="yes"/>
      <point x="307" y="381"/>
      <point x="342" y="366" type="qcurve"/>
      <point x="342" y="420" type="line" smooth="yes"/>
      <point x="342" y="446"/>
      <point x="307" y="481"/>
      <point x="281" y="481" type="qcurve" smooth="yes"/>
      <point x="256" y="481"/>
      <point x="221" y="446"/>
      <point x="221" y="420" type="qcurve"/>
      <point x="100" y="420" type="line"/>
      <point x="100" y="458"/>
      <point x="128" y="524"/>
      <point x="178" y="574"/>
      <point x="243" y="602"/>
      <point x="281" y="602" type="qcurve" smooth="yes"/>
      <point x="318" y="602"/>
      <point x="382" y="575"/>
      <point x="407" y="552" type="qcurve"/>
      <point x="433" y="575"/>
      <point x="500" y="602"/>
      <point x="538" y="602" type="qcurve" smooth="yes"/>
      <point x="578" y="602"/>
      <point x="650" y="571"/>
      <point x="703" y="518"/>
      <point x="734" y="446"/>
      <point x="734" y="406" type="qcurve" smooth="yes"/>
      <point x="734" y="264" type="line"/>
    </contour>
    <contour>
      <point x="538" y="481" type="qcurve" smooth="yes"/>
      <point x="506" y="481"/>
      <point x="463" y="437"/>
      <point x="463" y="406" type="qcurve" smooth="yes"/>
      <point x="463" y="385" type="line"/>
      <point x="613" y="385" type="line"/>
      <point x="613" y="406" type="line" smooth="yes"/>
      <point x="613" y="437"/>
      <point x="569" y="481"/>
    </contour>
    <contour>
      <point x="267" y="110" type="qcurve" smooth="yes"/>
      <point x="298" y="110"/>
      <point x="342" y="154"/>
      <point x="342" y="185" type="qcurve" smooth="yes"/>
      <point x="342" y="216"/>
      <point x="298" y="260"/>
      <point x="267" y="260" type="qcurve" smooth="yes"/>
      <point x="236" y="260"/>
      <point x="192" y="216"/>
      <point x="192" y="185" type="qcurve" smooth="yes"/>
      <point x="192" y="154"/>
      <point x="236" y="110"/>
    </contour>
  </outline>
</glyph>
<glyph name="ccedilla" format="1">
  <advance width="505"/>
  <unicode hex="00E7"/>
  <outline>
    <contour>
      <point x="253" y="111" type="qcurve" smooth="yes"/>
      <point x="278" y="111"/>
      <point x="313" y="146"/>
      <point x="313" y="171" type="qcurve"/>
      <point x="434" y="171" type="line"/>
      <point x="434" y="136"/>
      <point x="410" y="75"/>
      <point x="368" y="27"/>
      <point x="311" y="-5"/>
      <point x="278" y="-9" type="qcurve"/>
      <point x="278" y="-135" type="line"/>
      <point x="207" y="-135" type="line"/>
      <point x="227" y="-9" type="line"/>
      <point x="194" y="-4"/>
      <point x="137" y="28"/>
      <point x="95" y="76"/>
      <point x="71" y="137"/>
      <point x="71" y="171" type="qcurve" smooth="yes"/>
      <point x="71" y="420" type="line" smooth="yes"/>
      <point x="71" y="458"/>
      <point x="99" y="524"/>
      <point x="149" y="574"/>
      <point x="215" y="602"/>
      <point x="253" y="602" type="qcurve" smooth="yes"/>
      <point x="290" y="602"/>
      <point x="356" y="574"/>
      <point x="406" y="524"/>
      <point x="434" y="458"/>
      <point x="434" y="420" type="qcurve"/>
      <point x="313" y="420" type="line"/>
      <point x="313" y="446"/>
      <point x="278" y="481"/>
      <point x="253" y="481" type="qcurve" smooth="yes"/>
      <point x="227" y="481"/>
      <point x="192" y="446"/>
      <point x="192" y="420" type="qcurve" smooth="yes"/>
      <point x="192" y="171" type="line" smooth="yes"/>
      <point x="192" y="146"/>
      <point x="227" y="111"/>
    </contour>
  </outline>
</glyph>
<glyph name="edieresis" format="1">
  <advance width="534"/>
  <unicode hex="00EB"/>
  <outline>
    <contour>
      <point x="192" y="171" type="line" smooth="yes"/>
      <point x="192" y="146"/>
      <point x="227" y="110"/>
      <point x="253" y="110" type="qcurve" smooth="yes"/>
      <point x="278" y="110"/>
      <point x="313" y="146"/>
      <point x="313" y="171" type="qcurve"/>
      <point x="434" y="171" type="line"/>
      <point x="434" y="133"/>
      <point x="406" y="67"/>
      <point x="356" y="18"/>
      <point x="290" y="-11"/>
      <point x="253" y="-11" type="qcurve" smooth="yes"/>
      <point x="215" y="-11"/>
      <point x="149" y="18"/>
      <point x="99" y="67"/>
      <point x="71" y="133"/>
      <point x="71" y="171" type="qcurve" smooth="yes"/>
      <point x="71" y="406" type="line" smooth="yes"/>
      <point x="71" y="446"/>
      <point x="102" y="518"/>
      <point x="155" y="571"/>
      <point x="226" y="602"/>
      <point x="267" y="602" type="qcurve" smooth="yes"/>
      <point x="307" y="602"/>
      <point x="379" y="571"/>
      <point x="432" y="518"/>
      <point x="463" y="446"/>
      <point x="463" y="406" type="qcurve" smooth="yes"/>
      <point x="463" y="264" type="line"/>
      <point x="192" y="264" type="line"/>
    </contour>
    <contour>
      <point x="342" y="406" type="line" smooth="yes"/>
      <point x="342" y="437"/>
      <point x="298" y="481"/>
      <point x="267" y="481" type="qcurve" smooth="yes"/>
      <point x="236" y="481"/>
      <point x="192" y="437"/>
      <point x="192" y="406" type="qcurve" smooth="yes"/>
      <point x="192" y="385" type="line"/>
      <point x="342" y="385" type="line"/>
    </contour>
    <contour>
      <point x="156" y="650" type="line"/>
      <point x="156" y="721" type="line"/>
      <point x="227" y="721" type="line"/>
      <point x="227" y="650" type="line"/>
    </contour>
    <contour>
      <point x="298" y="650" type="line"/>
      <point x="298" y="721" type="line"/>
      <point x="369" y="721" type="line"/>
      <point x="369" y="650" type="line"/>
    </contour>
  </outline>
</glyph>
<glyph name="igrave" format="1">
  <advance width="264"/>
  <unicode hex="00EC"/>
  <outline>
    <contour>
      <point x="71" y="0" type="line"/>
      <point x="71" y="591" type="line"/>
      <point x="192" y="591" type="line"/>
      <point x="192" y="0" type="line"/>
    </contour>
    <contour>
      <point x="111" y="771" type="line"/>
      <point x="207" y="675" type="line"/>
      <point x="172" y="640" type="line"/>
      <point x="61" y="721" type="line"/>
    </contour>
  </outline>
</glyph>
<glyph name="iacute" format="1">
  <advance width="264"/>
  <unicode hex="00ED"/>
  <outline>
    <contour>
      <point x="71" y="0" type="line"/>
      <point x="71" y="591" type="line"/>
      <point x="192" y="591" type="line"/>
      <point x="192" y="0" type="line"/>
    </contour>
    <contour>
      <point x="97" y="640" type="line"/>
      <point x="62" y="675" type="line"/>
      <point x="157" y="771" type="line"/>
      <point x="208" y="721" type="line"/>
    </contour>
  </outline>
</glyph>
<glyph name="icircumflex" format="1">
  <advance width="264"/>
  <unicode hex="00EE"/>
  <outline>
    <contour>
      <point x="71" y="0" type="line"/>
      <point x="71" y="591" type="line"/>
      <point x="192" y="591" type="line"/>
      <point x="192" y="0" type="line"/>
    </contour>
    <contour>
      <point x="133" y="719" type="line"/>
      <point x="42" y="629" type="line"/>
      <point x="12" y="659" type="line"/>
      <point x="133" y="780" type="line"/>
      <point x="254" y="659" type="line"/>
      <point x="224" y="629" type="line"/>
    </contour>
  </outline>
</glyph>
<glyph name="idieresis" format="1">
  <advance width="264"/>
  <unicode hex="00EF"/>
  <outline>
    <contour>
      <point x="71" y="0" type="line"/>
      <point x="71" y="591" type="line"/>
      <point x="192" y="591" type="line"/>
      <point x="192" y="0" type="line"/>
    </contour>
    <contour>
      <point x="22" y="650" type="line"/>
      <point x="22" y="721" type="line"/>
      <point x="93" y="721" type="line"/>
      <point x="93" y="650" type="line"/>
    </contour>
    <contour>
      <point x="164" y="650" type="line"/>
      <point x="164" y="721" type="line"/>
      <point x="235" y="721" type="line"/>
      <point x="235" y="650" type="line"/>
    </contour>
  </outline>
</glyph>
<glyph name="odieresis" format="1">
  <advance width="506"/>
  <unicode hex="00F6"/>
  <outline>
    <contour>
      <point x="435" y="171" type="line" smooth="yes"/>
      <point x="435" y="133"/>
      <point x="407" y="67"/>
      <point x="357" y="18"/>
      <point x="291" y="-11"/>
      <point x="254" y="-11" type="qcurve" smooth="yes"/>
      <point x="216" y="-11"/>
      <point x="150" y="18"/>
      <point x="100" y="67"/>
      <point x="72" y="133"/>
      <point x="72" y="171" type="qcurve" smooth="yes"/>
      <point x="72" y="420" type="line" smooth="yes"/>
      <point x="72" y="458"/>
      <point x="100" y="524"/>
      <point x="150" y="574"/>
      <point x="216" y="602"/>
      <point x="254" y="602" type="qcurve" smooth="yes"/>
      <point x="291" y="602"/>
      <point x="357" y="574"/>
      <point x="407" y="524"/>
      <point x="435" y="458"/>
      <point x="435" y="420" type="qcurve" smooth="yes"/>
    </contour>
    <contour>
      <point x="315" y="420" type="line" smooth="yes"/>
      <point x="315" y="446"/>
      <point x="279" y="481"/>
      <point x="254" y="481" type="qcurve" smooth="yes"/>
      <point x="228" y="481"/>
      <point x="193" y="446"/>
      <point x="193" y="420" type="qcurve" smooth="yes"/>
      <point x="193" y="171" type="line" smooth="yes"/>
      <point x="193" y="146"/>
      <point x="228" y="110"/>
      <point x="254" y="110" type="qcurve" smooth="yes"/>
      <point x="279" y="110"/>
      <point x="315" y="146"/>
      <point x="315" y="171" type="qcurve" smooth="yes"/>
    </contour>
    <contour>
      <point x="147" y="650" type="line"/>
      <point x="147" y="721" type="line"/>
      <point x="218" y="721" type="line"/>
      <point x="218" y="650" type="line"/>
    </contour>
    <contour>
      <point x="289" y="650" type="line"/>
      <point x="289" y="721" type="line"/>
      <point x="360" y="721" type="line"/>
      <point x="360" y="650" type="line"/>
    </contour>
  </outline>
</glyph>
<glyph name="divide" format="1">
  <advance width="624"/>
  <unicode hex="00F7"/>
  <outline>
    <contour>
      <point x="259.9" y="72.0996" type="line"/>
      <point x="259.9" y="179.2" type="line"/>
      <point x="367" y="179.2" type="line"/>
      <point x="367" y="72.0996" type="line"/>
    </contour>
    <contour>
      <point x="260" y="446.8" type="line"/>
      <point x="260" y="553.9" type="line"/>
      <point x="367.1" y="553.9" type="line"/>
      <point x="367.1" y="446.8" type="line"/>
    </contour>
    <contour>
      <point x="362" y="363" type="line"/>
      <point x="553" y="363" type="line"/>
      <point x="553" y="263" type="line"/>
      <point x="363" y="263" type="line"/>
      <point x="71" y="263" type="line"/>
      <point x="71" y="363" type="line"/>
    </contour>
  </outline>
</glyph>
<glyph name="dotlessi" format="1">
  <advance width="263"/>
  <unicode hex="0131"/>
  <outline>
    <contour>
      <point x="71" y="0" type="line"/>
      <point x="71" y="591" type="line"/>
      <point x="192" y="591" type="line"/>
      <point x="192" y="0" type="line"/>
    </contour>
  </outline>
</glyph>
<glyph name="OE" format="1">
  <advance width="894"/>
  <unicode hex="0152"/>
  <outline>
    <contour>
      <point x="427" y="489" type="line" smooth="yes"/>
      <point x="427" y="514"/>
      <point x="408" y="557"/>
      <point x="376" y="589"/>
      <point x="333" y="608"/>
      <point x="309" y="608" type="qcurve" smooth="yes"/>
      <point x="284" y="608"/>
      <point x="241" y="589"/>
      <point x="209" y="557"/>
      <point x="190" y="514"/>
      <point x="190" y="489" type="qcurve" smooth="yes"/>
      <point x="190" y="223" type="line" smooth="yes"/>
      <point x="190" y="199"/>
      <point x="209" y="156"/>
      <point x="241" y="124"/>
      <point x="284" y="105"/>
      <point x="309" y="105" type="qcurve" smooth="yes"/>
      <point x="333" y="105"/>
      <point x="376" y="124"/>
      <point x="408" y="156"/>
      <point x="427" y="199"/>
      <point x="427" y="223" type="qcurve" smooth="yes"/>
    </contour>
    <contour>
      <point x="429" y="712" type="line"/>
      <point x="823" y="712" type="line"/>
      <point x="823" y="593" type="line"/>
      <point x="548" y="593" type="line"/>
      <point x="548" y="458" type="line"/>
      <point x="766" y="458" type="line"/>
      <point x="766" y="339" type="line"/>
      <point x="548" y="339" type="line"/>
      <point x="548" y="119" type="line"/>
      <point x="823" y="119" type="line"/>
      <point x="823" y="0" type="line"/>
      <point x="429" y="0" type="line"/>
      <point x="429" y="38" type="line"/>
      <point x="415" y="23"/>
      <point x="397" y="12" type="qcurve" smooth="yes"/>
      <point x="381" y="2"/>
      <point x="338" y="-14"/>
      <point x="309" y="-14" type="qcurve" smooth="yes"/>
      <point x="260" y="-14"/>
      <point x="173" y="23"/>
      <point x="109" y="88"/>
      <point x="71" y="174"/>
      <point x="71" y="223" type="qcurve" smooth="yes"/>
      <point x="71" y="489" type="line" smooth="yes"/>
      <point x="71" y="538"/>
      <point x="109" y="625"/>
      <point x="173" y="689"/>
      <point x="260" y="727"/>
      <point x="309" y="727" type="qcurve" smooth="yes"/>
      <point x="337" y="727"/>
      <point x="381" y="710"/>
      <point x="397" y="700" type="qcurve" smooth="yes"/>
      <point x="415" y="689"/>
      <point x="429" y="674" type="qcurve"/>
    </contour>
  </outline>
</glyph>
<glyph name="oe" format="1">
  <advance width="776"/>
  <unicode hex="0153"/>
  <outline>
    <contour>
      <point x="434" y="264" type="line"/>
      <point x="434" y="171" type="line" smooth="yes"/>
      <point x="434" y="146"/>
      <point x="470" y="110"/>
      <point x="495" y="110" type="qcurve" smooth="yes"/>
      <point x="521" y="110"/>
      <point x="556" y="146"/>
      <point x="556" y="171" type="qcurve"/>
      <point x="677" y="171" type="line"/>
      <point x="677" y="133"/>
      <point x="648" y="67"/>
      <point x="599" y="18"/>
      <point x="532" y="-11"/>
      <point x="495" y="-11" type="qcurve" smooth="yes"/>
      <point x="460" y="-11"/>
      <point x="398" y="14"/>
      <point x="374" y="36" type="qcurve"/>
      <point x="350" y="14"/>
      <point x="288" y="-11"/>
      <point x="253" y="-11" type="qcurve" smooth="yes"/>
      <point x="215" y="-11"/>
      <point x="149" y="18"/>
      <point x="99" y="67"/>
      <point x="71" y="133"/>
      <point x="71" y="171" type="qcurve" smooth="yes"/>
      <point x="71" y="420" type="line" smooth="yes"/>
      <point x="71" y="458"/>
      <point x="99" y="524"/>
      <point x="149" y="574"/>
      <point x="215" y="602"/>
      <point x="253" y="602" type="qcurve" smooth="yes"/>
      <point x="290" y="602"/>
      <point x="354" y="575"/>
      <point x="378" y="552" type="qcurve"/>
      <point x="404" y="575"/>
      <point x="471" y="602"/>
      <point x="509" y="602" type="qcurve" smooth="yes"/>
      <point x="550" y="602"/>
      <point x="621" y="571"/>
      <point x="674" y="518"/>
      <point x="705" y="446"/>
      <point x="705" y="406" type="qcurve" smooth="yes"/>
      <point x="705" y="264" type="line"/>
    </contour>
    <contour>
      <point x="509" y="481" type="qcurve" smooth="yes"/>
      <point x="478" y="481"/>
      <point x="434" y="437"/>
      <point x="434" y="406" type="qcurve" smooth="yes"/>
      <point x="434" y="385" type="line"/>
      <point x="584" y="385" type="line"/>
      <point x="584" y="406" type="line" smooth="yes"/>
      <point x="584" y="437"/>
      <point x="541" y="481"/>
    </contour>
    <contour>
      <point x="313" y="420" type="line" smooth="yes"/>
      <point x="313" y="446"/>
      <point x="278" y="481"/>
      <point x="253" y="481" type="qcurve" smooth="yes"/>
      <point x="227" y="481"/>
      <point x="192" y="446"/>
      <point x="192" y="420" type="qcurve" smooth="yes"/>
      <point x="192" y="171" type="line" smooth="yes"/>
      <point x="192" y="146"/>
      <point x="227" y="110"/>
      <point x="253" y="110" type="qcurve" smooth="yes"/>
      <point x="278" y="110"/>
      <point x="313" y="146"/>
      <point x="313" y="171" type="qcurve" smooth="yes"/>
    </contour>
  </outline>
</glyph>
<glyph name="Ydieresis" format="1">
  <advance width="617"/>
  <unicode hex="0178"/>
  <outline>
    <contour>
      <point x="368" y="356" type="line"/>
      <point x="368" y="0" type="line"/>
      <point x="249" y="0" type="line"/>
      <point x="249" y="356" type="line"/>
      <point x="71" y="712" type="line"/>
      <point x="204" y="712" type="line"/>
      <point x="309" y="503" type="line"/>
      <point x="413" y="712" type="line"/>
      <point x="546" y="712" type="line"/>
    </contour>
    <contour>
      <point x="201" y="755" type="line"/>
      <point x="201" y="826" type="line"/>
      <point x="272" y="826" type="line"/>
      <point x="272" y="755" type="line"/>
    </contour>
    <contour>
      <point x="343" y="755" type="line"/>
      <point x="343" y="826" type="line"/>
      <point x="414" y="826" type="line"/>
      <point x="414" y="755" type="line"/>
    </contour>
  </outline>
</glyph>
<glyph name="circumflex" format="1">
  <advance width="805"/>
  <unicode hex="02C6"/>
  <outline>
    <contour>
      <point x="309" y="831" type="line"/>
      <point x="218" y="741" type="line"/>
      <point x="188" y="771" type="line"/>
      <point x="309" y="892" type="line"/>
      <point x="430" y="771" type="line"/>
      <point x="400" y="741" type="line"/>
    </contour>
  </outline>
</glyph>
<glyph name="caron" format="1">
  <advance width="383"/>
  <unicode hex="02C7"/>
  <outline>
    <contour>
      <point x="191" y="747" type="line"/>
      <point x="71" y="868" type="line"/>
      <point x="101" y="898" type="line"/>
      <point x="191" y="807" type="line"/>
      <point x="282" y="898" type="line"/>
      <point x="312" y="868" type="line"/>
    </contour>
  </outline>
</glyph>
<glyph name="dotaccent" format="1">
  <advance width="335"/>
  <unicode hex="02D9"/>
  <outline>
    <contour>
      <point x="107" y="712" type="line"/>
      <point x="228" y="712" type="line"/>
      <point x="228" y="651" type="line"/>
      <point x="107" y="651" type="line"/>
    </contour>
  </outline>
</glyph>
<glyph name="endash" format="1">
  <advance width="613"/>
  <unicode hex="2013"/>
  <outline>
    <contour>
      <point x="12" y="217" type="line"/>
      <point x="12" y="334" type="line"/>
      <point x="601" y="334" type="line"/>
      <point x="601" y="217" type="line"/>
    </contour>
  </outline>
</glyph>
<glyph name="emdash" format="1">
  <advance width="1000"/>
  <unicode hex="2014"/>
  <outline>
    <contour>
      <point x="0" y="334" type="line"/>
      <point x="1000" y="334" type="line"/>
      <point x="1000" y="217" type="line"/>
      <point x="0" y="217" type="line"/>
    </contour>
  </outline>
</glyph>
<glyph name="quoteleft" format="1">
  <advance width="249"/>
  <unicode hex="2018"/>
  <outline>
    <contour>
      <point x="178" y="712" type="line"/>
      <point x="178" y="534" type="line"/>
      <point x="71" y="534" type="line"/>
      <point x="71" y="652" type="line"/>
    </contour>
  </outline>
</glyph>
<glyph name="quoteright" format="1">
  <advance width="249"/>
  <unicode hex="2019"/>
  <outline>
    <contour>
      <point x="71" y="534" type="line"/>
      <point x="71" y="712" type="line"/>
      <point x="178" y="712" type="line"/>
      <point x="178" y="594" type="line"/>
    </contour>
  </outline>
</glyph>
<glyph name="quotesinglbase" format="1">
  <advance width="249"/>
  <unicode hex="201A"/>
  <outline>
    <contour>
      <point x="71" y="-74" type="line"/>
      <point x="71" y="104" type="line"/>
      <point x="178" y="104" type="line"/>
      <point x="178" y="-14" type="line"/>
    </contour>
  </outline>
</glyph>
<glyph name="quotedblleft" format="1">
  <advance width="355"/>
  <unicode hex="201C"/>
  <outline>
    <contour>
      <point x="313" y="712" type="line"/>
      <point x="313" y="534" type="line"/>
      <point x="206" y="534" type="line"/>
      <point x="206" y="652" type="line"/>
    </contour>
    <contour>
      <point x="147" y="712" type="line"/>
      <point x="147" y="534" type="line"/>
      <point x="42" y="534" type="line"/>
      <point x="42" y="652" type="line"/>
    </contour>
  </outline>
</glyph>
<glyph name="quotedblright" format="1">
  <advance width="355"/>
  <unicode hex="201D"/>
  <outline>
    <contour>
      <point x="42" y="534" type="line"/>
      <point x="42" y="712" type="line"/>
      <point x="149" y="712" type="line"/>
      <point x="149" y="594" type="line"/>
    </contour>
    <contour>
      <point x="208" y="534" type="line"/>
      <point x="208" y="712" type="line"/>
      <point x="313" y="712" type="line"/>
      <point x="313" y="594" type="line"/>
    </contour>
  </outline>
</glyph>
<glyph name="quotedblbase" format="1">
  <advance width="341"/>
  <unicode hex="201E"/>
  <outline>
    <contour>
      <point x="35" y="-76" type="line"/>
      <point x="35" y="102" type="line"/>
      <point x="142" y="102" type="line"/>
      <point x="142" y="-16" type="line"/>
    </contour>
    <contour>
      <point x="201" y="-76" type="line"/>
      <point x="201" y="102" type="line"/>
      <point x="306" y="102" type="line"/>
      <point x="306" y="-16" type="line"/>
    </contour>
  </outline>
</glyph>
<glyph name="bullet" format="1">
  <advance width="499"/>
  <unicode hex="2022"/>
  <outline>
    <contour>
      <point x="72" y="356" type="qcurve" smooth="yes"/>
      <point x="72" y="393"/>
      <point x="100" y="458"/>
      <point x="148" y="506"/>
      <point x="213" y="534"/>
      <point x="250" y="534" type="qcurve" smooth="yes"/>
      <point x="287" y="534"/>
      <point x="352" y="506"/>
      <point x="400" y="458"/>
      <point x="428" y="393"/>
      <point x="428" y="356" type="qcurve" smooth="yes"/>
      <point x="428" y="319"/>
      <point x="400" y="254"/>
      <point x="352" y="206"/>
      <point x="287" y="178"/>
      <point x="250" y="178" type="qcurve" smooth="yes"/>
      <point x="213" y="178"/>
      <point x="148" y="206"/>
      <point x="100" y="254"/>
      <point x="72" y="319"/>
    </contour>
  </outline>
</glyph>
<glyph name="ellipsis" format="1">
  <advance width="783"/>
  <unicode hex="2026"/>
  <outline>
    <contour>
      <point x="71" y="0" type="line"/>
      <point x="71" y="119" type="line"/>
      <point x="190" y="119" type="line"/>
      <point x="190" y="0" type="line"/>
    </contour>
    <contour>
      <point x="332" y="0" type="line"/>
      <point x="332" y="119" type="line"/>
      <point x="451" y="119" type="line"/>
      <point x="451" y="0" type="line"/>
    </contour>
    <contour>
      <point x="593" y="0" type="line"/>
      <point x="593" y="119" type="line"/>
      <point x="712" y="119" type="line"/>
      <point x="712" y="0" type="line"/>
    </contour>
  </outline>
</glyph>
<glyph name="trademark" format="1">
  <advance width="405"/>
  <unicode hex="2122"/>
  <outline>
    <contour>
      <point x="179" y="684" type="line"/>
      <point x="140" y="684" type="line"/>
      <point x="140" y="536" type="line"/>
      <point x="110" y="536" type="line"/>
      <point x="110" y="684" type="line"/>
      <point x="71" y="684" type="line"/>
      <point x="71" y="714" type="line"/>
      <point x="179" y="714" type="line"/>
    </contour>
    <contour>
      <point x="334" y="714" type="line"/>
      <point x="334" y="536" type="line"/>
      <point x="305" y="536" type="line"/>
      <point x="305" y="655" type="line"/>
      <point x="275" y="603" type="line"/>
      <point x="245" y="655" type="line"/>
      <point x="245" y="536" type="line"/>
      <point x="215" y="536" type="line"/>
      <point x="215" y="714" type="line"/>
      <point x="245" y="714" type="line"/>
      <point x="275" y="663" type="line"/>
      <point x="305" y="714" type="line"/>
    </contour>
  </outline>
</glyph>
<glyph name="f_f" format="1">
  <advance width="750"/>
  <unicode hex="FB00"/>
  <outline>
    <contour>
      <point x="274" y="597" type="line"/>
      <point x="261" y="601.333"/>
      <point x="249.556" y="601.333" type="qcurve" smooth="yes"/>
      <point x="226.667" y="601.333"/>
      <point x="210" y="584" type="qcurve" smooth="yes"/>
      <point x="192" y="567"/>
      <point x="192" y="541" type="qcurve" smooth="yes"/>
      <point x="192" y="417" type="line"/>
      <point x="253" y="417" type="line"/>
      <point x="253" y="296" type="line"/>
      <point x="192" y="296" type="line"/>
      <point x="192" y="0" type="line"/>
      <point x="71" y="0" type="line"/>
      <point x="71" y="541" type="line" smooth="yes"/>
      <point x="71" y="579"/>
      <point x="85" y="612" type="qcurve" smooth="yes"/>
      <point x="99" y="645"/>
      <point x="124" y="670" type="qcurve" smooth="yes"/>
      <point x="149" y="695"/>
      <point x="182" y="709" type="qcurve" smooth="yes"/>
      <point x="214.604" y="722.755"/>
      <point x="248.765" y="722.755" type="qcurve" smooth="yes"/>
      <point x="281.66" y="722.755"/>
      <point x="316" y="710" type="qcurve"/>
    </contour>
    <component base="f" xOffset="245"/>
  </outline>
</glyph>
<glyph name="fi" format="1">
  <advance width="505"/>
  <unicode hex="FB01"/>
  <outline>
    <contour>
      <point x="313" y="0" type="line"/>
      <point x="313" y="417" type="line"/>
      <point x="434" y="417" type="line"/>
      <point x="434" y="0" type="line"/>
    </contour>
    <contour>
      <point x="313" y="541" type="line"/>
      <point x="313" y="567"/>
      <point x="278" y="602"/>
      <point x="253" y="602" type="qcurve" smooth="yes"/>
      <point x="227" y="602"/>
      <point x="192" y="567"/>
      <point x="192" y="541" type="qcurve" smooth="yes"/>
      <point x="192" y="417" type="line"/>
      <point x="253" y="417" type="line"/>
      <point x="253" y="296" type="line"/>
      <point x="192" y="296" type="line"/>
      <point x="192" y="0" type="line"/>
      <point x="71" y="0" type="line"/>
      <point x="71" y="541" type="line" smooth="yes"/>
      <point x="71" y="579"/>
      <point x="99" y="645"/>
      <point x="149" y="695"/>
      <point x="215" y="723"/>
      <point x="253" y="723" type="qcurve" smooth="yes"/>
      <point x="290" y="723"/>
      <point x="356" y="695"/>
      <point x="406" y="645"/>
      <point x="434" y="579"/>
      <point x="434" y="541" type="qcurve"/>
    </contour>
  </outline>
</glyph>
<glyph name="f_l" format="1">
  <advance width="505"/>
  <unicode hex="FB02"/>
  <outline>
    <contour>
      <point x="253" y="602" type="line"/>
      <point x="227" y="602"/>
      <point x="192" y="567"/>
      <point x="192" y="541" type="qcurve" smooth="yes"/>
      <point x="192" y="417" type="line"/>
      <point x="253" y="417" type="line"/>
      <point x="253" y="296" type="line"/>
      <point x="192" y="296" type="line"/>
      <point x="192" y="0" type="line"/>
      <point x="71" y="0" type="line"/>
      <point x="71" y="541" type="line" smooth="yes"/>
      <point x="71" y="579"/>
      <point x="99" y="645"/>
      <point x="149" y="695"/>
      <point x="215" y="723"/>
      <point x="253" y="723" type="qcurve"/>
    </contour>
    <contour>
      <point x="313" y="0" type="line"/>
      <point x="313" y="712" type="line"/>
      <point x="434" y="712" type="line"/>
      <point x="434" y="0" type="line"/>
    </contour>
  </outline>
</glyph>
<glyph name="uniFB03" format="1">
  <advance width="752"/>
  <unicode hex="FB03"/>
  <outline>
    <contour>
      <point x="274" y="597" type="line"/>
      <point x="260.831" y="601.39"/>
      <point x="226.39" y="601.39"/>
      <point x="192" y="567"/>
      <point x="192" y="541" type="qcurve" smooth="yes"/>
      <point x="192" y="417" type="line"/>
      <point x="253" y="417" type="line"/>
      <point x="253" y="296" type="line"/>
      <point x="192" y="296" type="line"/>
      <point x="192" y="0" type="line"/>
      <point x="71" y="0" type="line"/>
      <point x="71" y="541" type="line" smooth="yes"/>
      <point x="71" y="617"/>
      <point x="124" y="670" type="qcurve" smooth="yes"/>
      <point x="176.723" y="722.723"/>
      <point x="248.598" y="722.723" type="qcurve" smooth="yes"/>
      <point x="281.564" y="722.723"/>
      <point x="315.977" y="709.875" type="qcurve"/>
    </contour>
    <contour>
      <point x="560" y="0" type="line"/>
      <point x="560" y="417" type="line"/>
      <point x="681" y="417" type="line"/>
      <point x="681" y="0" type="line"/>
    </contour>
    <contour>
      <point x="560" y="541" type="line"/>
      <point x="560" y="567"/>
      <point x="525" y="602"/>
      <point x="474" y="602"/>
      <point x="439" y="567"/>
      <point x="439" y="541" type="qcurve" smooth="yes"/>
      <point x="439" y="417" type="line"/>
      <point x="500" y="417" type="line"/>
      <point x="500" y="296" type="line"/>
      <point x="439" y="296" type="line"/>
      <point x="439" y="0" type="line"/>
      <point x="318" y="0" type="line"/>
      <point x="318" y="541" type="line" smooth="yes"/>
      <point x="318" y="617"/>
      <point x="424" y="723"/>
      <point x="500" y="723" type="qcurve" smooth="yes"/>
      <point x="575" y="723"/>
      <point x="681" y="617"/>
      <point x="681" y="541" type="qcurve"/>
    </contour>
  </outline>
</glyph>
<glyph name="uniFB04" format="1">
  <advance width="752"/>
  <unicode hex="FB04"/>
  <outline>
    <contour>
      <point x="274" y="597" type="line"/>
      <point x="261" y="601.333"/>
      <point x="249.444" y="601.333" type="qcurve" smooth="yes"/>
      <point x="226.333" y="601.333"/>
      <point x="209" y="584" type="qcurve" smooth="yes"/>
      <point x="192" y="567"/>
      <point x="192" y="541" type="qcurve" smooth="yes"/>
      <point x="192" y="417" type="line"/>
      <point x="253" y="417" type="line"/>
      <point x="253" y="296" type="line"/>
      <point x="192" y="296" type="line"/>
      <point x="192" y="0" type="line"/>
      <point x="71" y="0" type="line"/>
      <point x="71" y="541" type="line" smooth="yes"/>
      <point x="71" y="579"/>
      <point x="99" y="645"/>
      <point x="149" y="695"/>
      <point x="182" y="709" type="qcurve" smooth="yes"/>
      <point x="214.604" y="722.755"/>
      <point x="248.765" y="722.755" type="qcurve" smooth="yes"/>
      <point x="281.66" y="722.755"/>
      <point x="316" y="710" type="qcurve"/>
    </contour>
    <contour>
      <point x="500" y="602" type="line"/>
      <point x="474" y="602"/>
      <point x="439" y="567"/>
      <point x="439" y="541" type="qcurve" smooth="yes"/>
      <point x="439" y="417" type="line"/>
      <point x="500" y="417" type="line"/>
      <point x="500" y="296" type="line"/>
      <point x="439" y="296" type="line"/>
      <point x="439" y="0" type="line"/>
      <point x="318" y="0" type="line"/>
      <point x="318" y="541" type="line" smooth="yes"/>
      <point x="318" y="579"/>
      <point x="346" y="645"/>
      <point x="396" y="695"/>
      <point x="462" y="723"/>
      <point x="500" y="723" type="qcurve"/>
    </contour>
    <contour>
      <point x="560" y="0" type="line"/>
      <point x="560" y="712" type="line"/>
      <point x="681" y="712" type="line"/>
      <point x="681" y="0" type="line"/>
    </contour>
  </outline>
</glyph>
